$MeshFormat
4.1 0 8
$EndMeshFormat
$PhysicalNames
5
1 51 "Inlet_left"
1 52 "Inlet_lower"
1 53 "Outlet"
1 55 "Walls"
2 56 "Volume"
$EndPhysicalNames
$Entities
37 36 1 0
1 0 0 0 0 
2 0 1 0 0 
3 1 0 0 0 
4 1.5 0 0 0 
5 0 1.5 0 0 
6 0 2.5 0 0 
7 10 6 0 0 
10 0 3 0 0 
11 5 0 0 0 
12 5 2.5 0 0 
13 4.5 2.5 0 0 
14 4.5 3 0 0 
16 5.5 0 0 0 
18 3.5 3 0 0 
19 3.5 2.5 0 0 
21 0 4.5 0 0 
23 0 6 0 0 
24 0 4 0 0 
25 2 4 0 0 
26 2 4.5 0 0 
27 3 4 0 0 
28 3 4.5 0 0 
29 5 4 0 0 
30 5 4.5 0 0 
31 5.5 4 0 0 
32 5.5 6 0 0 
33 5 6 0 0 
34 5.5 3 0 0 
35 10 3 0 0 
36 7.5 3 0 0 
37 7.5 3.5 0 0 
38 10 3.5 0 0 
39 3.5 6 0 0 
40 4 6 0 0 
41 6 0 0 0 
42 7 0 0 0 
43 10 0 0 0 
1 0 0 0 0 1 0 1 55 2 1 -2 
2 0 1 0 0 1.5 0 1 51 2 2 -5 
3 0 1.5 0 0 2.5 0 1 55 2 5 -6 
7 0 0 0 1 0 0 1 55 2 1 -3 
8 1 0 0 1.5 0 0 1 52 2 3 -4 
9 1.5 0 0 5 0 0 1 55 2 4 -11 
10 5 0 0 5 2.5 0 1 55 2 11 -12 
11 4.5 2.5 0 5 2.5 0 1 55 2 12 -13 
12 4.5 2.5 0 4.5 3 0 1 55 2 13 -14 
17 3.5 2.5 0 3.5 3 0 1 55 2 19 -18 
21 0 4.5 0 2 4.5 0 1 55 2 21 -26 
22 2 4 0 2 4.5 0 1 55 2 26 -25 
23 0 4 0 2 4 0 1 55 2 25 -24 
24 0 3 0 0 4 0 1 55 2 24 -10 
25 3 4 0 3 4.5 0 1 55 2 27 -28 
26 3 4.5 0 5 4.5 0 1 55 2 28 -30 
27 3 4 0 5.5 4 0 1 55 2 27 -31 
28 5 4.5 0 5 6 0 1 55 2 33 -30 
29 5.5 4 0 5.5 6 0 1 55 2 31 -32 
32 5.5 0 0 5.5 3 0 1 55 2 34 -16 
33 4.5 3 0 5.5 3 0 1 55 2 14 -34 
34 0 3 0 3.5 3 0 1 55 2 18 -10 
35 0 2.5 0 3.5 2.5 0 1 55 2 6 -19 
36 5.5 6 0 10 6 0 1 55 2 32 -7 
39 10 3.5 0 10 6 0 1 55 2 7 -38 
40 7.5 3.5 0 10 3.5 0 1 55 2 38 -37 
41 7.5 3 0 7.5 3.5 0 1 55 2 37 -36 
42 7.5 3 0 10 3 0 1 55 2 36 -35 
43 5.5 0 0 6 0 0 1 55 2 16 -41 
44 6 0 0 7 0 0 1 53 2 41 -42 
45 7 0 0 10 0 0 1 55 2 42 -43 
46 10 0 0 10 3 0 1 55 2 35 -43 
47 0 6 0 3.5 6 0 1 55 2 23 -39 
48 3.5 6 0 4 6 0 1 53 2 39 -40 
49 4 6 0 5 6 0 1 55 2 40 -33 
50 0 4.5 0 0 6 0 1 55 2 21 -23 
1 0 0 0 10 6 0 1 56 36 47 48 49 28 -26 -25 27 29 36 39 40 41 42 46 -45 -44 -43 -32 -33 -12 -11 -10 -9 -8 -7 1 2 3 35 17 34 -24 -23 -22 -21 50 
$EndEntities
$Nodes
73 653 1 653
0 1 0 1
1
-0 -0 0
0 2 0 1
2
-0 1 0
0 3 0 1
3
1 0 0
0 4 0 1
4
1.5 -0 0
0 5 0 1
5
-0 1.5 0
0 6 0 1
6
0 2.5 0
0 7 0 1
7
10 6 0
0 10 0 1
8
0 3 0
0 11 0 1
9
5 0 0
0 12 0 1
10
5 2.5 0
0 13 0 1
11
4.5 2.5 0
0 14 0 1
12
4.5 3 0
0 16 0 1
13
5.5 -0 0
0 18 0 1
14
3.5 3 0
0 19 0 1
15
3.5 2.5 -0
0 21 0 1
16
0 4.5 0
0 23 0 1
17
-0 6 0
0 24 0 1
18
0 4 0
0 25 0 1
19
2 4 0
0 26 0 1
20
2 4.5 0
0 27 0 1
21
3 4 0
0 28 0 1
22
3 4.5 0
0 30 0 1
23
5 4.5 0
0 31 0 1
24
5.5 4 0
0 32 0 1
25
5.5 6 0
0 33 0 1
26
5 6 0
0 34 0 1
27
5.5 3 0
0 35 0 1
28
10 3 0
0 36 0 1
29
7.5 3 0
0 37 0 1
30
7.5 3.5 0
0 38 0 1
31
10 3.5 0
0 39 0 1
32
3.5 6 0
0 40 0 1
33
4 6 0
0 41 0 1
34
6 -0 -0
0 42 0 1
35
7 0 -0
0 43 0 1
36
10 0 -0
1 1 0 2
37
38
0 0.3333333333325026 0
0 0.6666666666657889 0
1 2 0 1
39
0 1.25 0
1 3 0 2
40
41
0 1.833333333333333 0
0 2.166666666666667 0
1 7 0 2
42
43
0.3333333333325026 0 0
0.6666666666657889 0 0
1 8 0 1
44
1.25 0 0
1 9 0 8
45
46
47
48
49
50
51
52
1.888888888889929 0 0
2.277777777779858 0 0
2.666666666669787 0 0
3.055555555559716 0 0
3.444444444452112 0 0
3.83333333334287 0 0
4.222222222230005 0 0
4.611111111115003 0 0
1 10 0 6
53
54
55
56
57
58
5 0.3571428571424804 0
5 0.7142857142842951 0
5 1.071428571426401 0
5 1.428571428569801 0
5 1.7857142857132 0
5 2.1428571428566 0
1 11 0 1
59
4.75 2.5 0
1 12 0 1
60
4.5 2.75 0
1 17 0 1
61
3.5 2.75 0
1 21 0 4
62
63
64
65
0.3999999999991158 4.5 0
0.7999999999979499 4.5 0
1.199999999997894 4.5 0
1.599999999998947 4.5 0
1 22 0 1
66
2 4.25 0
1 23 0 4
67
68
69
70
1.6 4 0
1.200000000002774 4 0
0.8000000000033287 4 0
0.4000000000016644 4 0
1 24 0 2
71
72
0 3.666666666666667 0
0 3.333333333333333 0
1 25 0 1
73
3 4.25 0
1 26 0 4
74
75
76
77
3.399999999999999 4.5 0
3.799999999999999 4.5 0
4.199999999999999 4.5 0
4.6 4.5 0
1 27 0 6
78
79
80
81
82
83
3.357142857142858 4 0
3.714285714285716 4 0
4.071428571428573 4 0
4.42857142857143 4 0
4.785714285714286 4 0
5.142857142857143 4 0
1 28 0 3
84
85
86
5 5.625000000011104 0
5 5.250000000022033 0
5 4.875000000011104 0
1 29 0 4
87
88
89
90
5.5 4.399999999999999 0
5.5 4.799999999999999 0
5.5 5.199999999999999 0
5.5 5.6 0
1 32 0 7
91
92
93
94
95
96
97
5.5 2.62500000000181 0
5.5 2.250000000002578 0
5.5 1.875000000002479 0
5.5 1.500000000004159 0
5.5 1.125000000003151 0
5.5 0.750000000002101 0
5.5 0.3750000000010507 0
1 33 0 2
98
99
4.833333333333333 3 0
5.166666666666667 3 0
1 34 0 8
100
101
102
103
104
105
106
107
3.111111111111294 3 0
2.722222222222588 3 0
2.333333333333882 3 0
1.944444444445176 3 0
1.555555555555237 3 0
1.166666666666117 3 0
0.7777777777774117 3 0
0.3888888888887054 3 0
1 35 0 8
108
109
110
111
112
113
114
115
0.3888888888887618 2.5 0
0.7777777777774606 2.5 0
1.16666666666616 2.5 0
1.555555555554858 2.5 0
1.94444444444479 2.5 0
2.333333333333903 2.5 0
2.722222222222602 2.5 0
3.111111111111301 2.5 0
1 36 0 11
116
117
118
119
120
121
122
123
124
125
126
5.875 6 0
6.25 6 0
6.625 6 0
7 6 0
7.375 6 0
7.75 6 0
8.125 6 0
8.5 6 0
8.875 6 0
9.25 6 0
9.625 6 0
1 39 0 6
127
128
129
130
131
132
10 5.642857142857142 0
10 5.285714285714284 0
10 4.928571428571427 0
10 4.57142857142857 0
10 4.214285714285714 0
10 3.857142857142857 0
1 40 0 6
133
134
135
136
137
138
9.64285714285967 3.5 0
9.28571428571934 3.5 0
8.928571428579012 3.5 0
8.571428571438682 3.5 0
8.214285714298352 3.5 0
7.857142857153017 3.5 0
1 41 0 1
139
7.5 3.25 0
1 42 0 6
140
141
142
143
144
145
7.857142857153018 3 0
8.214285714298352 3 0
8.571428571438682 3 0
8.928571428579012 3 0
9.28571428571934 3 0
9.64285714285967 3 0
1 43 0 1
146
5.75 0 0
1 44 0 2
147
148
6.333333333333333 0 0
6.666666666666667 0 0
1 45 0 7
149
150
151
152
153
154
155
7.374999999996312 0 0
7.749999999992625 0 0
8.124999999985121 0 0
8.499999999970679 0 0
8.874999999977749 0 0
9.249999999985166 0 0
9.624999999992582 0 0
1 46 0 7
156
157
158
159
160
161
162
10 2.62500000000181 0
10 2.250000000002578 0
10 1.875000000002479 0
10 1.500000000004159 0
10 1.125000000003151 0
10 0.750000000002101 0
10 0.3750000000010507 0
1 47 0 8
163
164
165
166
167
168
169
170
0.3888888888887618 6 0
0.7777777777774606 6 0
1.16666666666616 6 0
1.555555555554858 6 0
1.94444444444479 6 0
2.333333333333903 6 0
2.722222222222602 6 0
3.111111111111301 6 0
1 48 0 1
171
3.75 6 0
1 49 0 2
172
173
4.333333333333333 6 0
4.666666666666667 6 0
1 50 0 3
174
175
176
0 4.874999999988896 0
0 5.249999999977967 0
0 5.624999999988896 0
2 1 0 477
177
178
179
180
181
182
183
184
185
186
187
188
189
190
191
192
193
194
195
196
197
198
199
200
201
202
203
204
205
206
207
208
209
210
211
212
213
214
215
216
217
218
219
220
221
222
223
224
225
226
227
228
229
230
231
232
233
234
235
236
237
238
239
240
241
242
243
244
245
246
247
248
249
250
251
252
253
254
255
256
257
258
259
260
261
262
263
264
265
266
267
268
269
270
271
272
273
274
275
276
277
278
279
280
281
282
283
284
285
286
287
288
289
290
291
292
293
294
295
296
297
298
299
300
301
302
303
304
305
306
307
308
309
310
311
312
313
314
315
316
317
318
319
320
321
322
323
324
325
326
327
328
329
330
331
332
333
334
335
336
337
338
339
340
341
342
343
344
345
346
347
348
349
350
351
352
353
354
355
356
357
358
359
360
361
362
363
364
365
366
367
368
369
370
371
372
373
374
375
376
377
378
379
380
381
382
383
384
385
386
387
388
389
390
391
392
393
394
395
396
397
398
399
400
401
402
403
404
405
406
407
408
409
410
411
412
413
414
415
416
417
418
419
420
421
422
423
424
425
426
427
428
429
430
431
432
433
434
435
436
437
438
439
440
441
442
443
444
445
446
447
448
449
450
451
452
453
454
455
456
457
458
459
460
461
462
463
464
465
466
467
468
469
470
471
472
473
474
475
476
477
478
479
480
481
482
483
484
485
486
487
488
489
490
491
492
493
494
495
496
497
498
499
500
501
502
503
504
505
506
507
508
509
510
511
512
513
514
515
516
517
518
519
520
521
522
523
524
525
526
527
528
529
530
531
532
533
534
535
536
537
538
539
540
541
542
543
544
545
546
547
548
549
550
551
552
553
554
555
556
557
558
559
560
561
562
563
564
565
566
567
568
569
570
571
572
573
574
575
576
577
578
579
580
581
582
583
584
585
586
587
588
589
590
591
592
593
594
595
596
597
598
599
600
601
602
603
604
605
606
607
608
609
610
611
612
613
614
615
616
617
618
619
620
621
622
623
624
625
626
627
628
629
630
631
632
633
634
635
636
637
638
639
640
641
642
643
644
645
646
647
648
649
650
651
652
653
7.210518893077684 0.2584613244727826 0
0.2492643771787036 1.1107149916557 0
1.383517528879189 0.2306831303973206 0
7.685193545297037 2.729889968498562 0
8.326805540298974 0.3277445844886366 0
7.689120068261985 3.771473163915998 0
5.816823601622334 1.715563493820844 0
7.263809984720544 3.370219480281532 0
3.637847744301274 0.3421986947134146 0
6.843262135085013 5.722481730516514 0
9.666639145618175 1.726934732980619 0
8.749351280230147 3.800344884079448 0
2.040643718618638 0.2828344526874098 0
7.374787754077113 2.728511754927969 0
7.536641542896119 2.46234714829885 0
1.355781880116583 2.171330708718592 0
3.299015849331872 2.215181972549369 0
7.927752277894173 5.723715765800328 0
5.812973506095731 4.193046894034284 0
2.530326662970688 2.176709625103567 0
7.232884112715007 2.464210303671121 0
7.388622100932571 2.191641112182609 0
7.697227244039519 2.190950888184839 0
7.548605188229688 1.914060141992568 0
7.866648758055075 1.914766856154469 0
4.659416238996212 1.651507980031577 0
9.697288758610036 4.743581559219312 0
7.714779756808935 1.631458713823658 0
7.385558485670015 1.628568112445031 0
8.046540281909772 1.638746710023625 0
2.864306331608003 0.340222504659192 0
3.614462298904471 2.201203462923042 0
3.450499918336794 1.929335224965963 0
5.805123460997542 2.805190072121312 0
8.682073198387535 5.704773368329159 0
6.498540296328773 0.2765031514838017 0
0.2799864179713939 1.624524582848358 0
0.8304202394329661 0.2371853517793111 0
3.622995778860866 5.817514021604118 0
4.166666666666666 5.747409257229539 0
9.082969220810741 0.3598922709405168 0
7.079264622405635 2.728061108013861 0
6.923594926100233 2.459951035081242 0
8.73651604848285 2.722596669908797 0
2.500687686031626 5.690906151651665 0
3.196795959977506 4.76943627594634 0
7.389114716204563 3.767413554656934 0
7.538729352011847 4.038962994458082 0
7.224719947843277 4.036312656884311 0
7.382639133348656 4.318068248659291 0
7.719413067398883 4.31177362599102 0
7.053412347876803 4.3146663683138 0
6.925388531245448 4.04316432336813 0
2.913505809646801 4.773249092426012 0
1.799999999999473 4.781458256230398 0
4.70898329498495 0.8908338366538913 0
7.218050756889923 4.606378082023193 0
6.877349842030904 4.603501916825829 0
7.552717056927602 1.341551658259522 0
7.217945640642613 1.339631903568304 0
5.817723977587096 3.167009213332782 0
4.284813955075844 2.619429107415462 0
2.216917924259752 4.122047156626559 0
6.770470577811338 2.727578775177527 0
6.616568025618516 2.461231700245509 0
2.110778882521556 4.790505429116534 0
7.057507869488518 1.627239154889442 0
6.881275170128829 1.339687046340332 0
5.805759234188984 5.008935200898306 0
5.820102536312292 0.9284692832775479 0
0.9722222222218105 5.663212342972883 0
3.049884081229006 5.017070910011858 0
3.333595260647093 5.03377147267096 0
2.239022666764618 3.868180762665187 0
4.256508278363119 2.360431721944201 0
3.765453280410988 1.932153194249581 0
3.616629326047395 1.633575344165531 0
3.2743409710484 1.631862241464347 0
3.443004639278912 1.328141916723538 0
3.0872171534277 1.331980460914749 0
8.209641318098141 1.927841462653998 0
8.389004472174133 1.645381114127588 0
8.221660433701109 1.343917799919227 0
8.567619099854852 1.344841463384698 0
3.795323536618424 1.330463939285304 0
8.737702022275485 1.655835113086544 0
8.920737623623422 1.351604356203769 0
2.781193238888949 4.580623308773805 0
3.937323492337374 3.696536368708289 0
6.729675624596092 1.628435147325103 0
3.7168447960279 2.868305448695163 0
1.934830555120787 5.073621816224769 0
4.005305462941938 4.833402998594715 0
9.679788319170822 0.9347602995343343 0
2.786074202861252 5.042429833249652 0
1.993695684461088 3.739080605179658 0
1.602806378703964 5.063788599440598 0
4.670451471385063 3.247198933979838 0
6.543743149823148 1.337118322530155 0
6.713371592546605 1.042307824053956 0
7.046206878956213 4.902866820343978 0
7.391713337176192 4.903250390919853 0
6.696415611751204 4.902332400264422 0
7.386930259372776 1.048143128670546 0
2.78349364905389 4.125 0
2.790122096435527 3.869943712580535 0
3.005724664431304 3.734784611884816 0
3.262828509038288 1.01851612799041 0
2.9013592103152 1.015654177067614 0
2.725156367682193 1.33793274750002 0
2.536554498586779 1.020151223683229 0
2.359301065647867 1.346185247074965 0
2.169661753417957 1.030720371574722 0
2.000006373673312 1.348109169983643 0
1.812131392515304 1.05220668422439 0
1.651830110751197 1.339336149929543 0
1.480304392886965 1.062958180271102 0
1.318238575814122 1.343460733892259 0
1.155351713323439 1.07621479497102 0
0.9999803262207193 1.343529719510649 0
0.8431616986687109 1.084814452436991 0
0.5647883365121582 4.814725083836702 0
9.415480622235547 5.635445132700066 0
9.648440440673445 2.448672561671722 0
6.092657241840791 3.006323365735275 0
6.105988538120727 3.323150428806321 0
9.658564083665453 4.035368258493764 0
4.384831183399864 3.256147546102089 0
8.747635694798355 1.038552617979052 0
6.52500387866047 4.593580052229382 0
0.9907952991683824 0.8213513429305418 0
0.6931094991607823 0.8314776523439709 0
1.597967689215755 0.7505178087980996 0
4.01547508988665 2.500705705895106 0
3.180430604404741 5.277687098537231 0
5.312802442572907 3.298891369576205 0
1.79618534937246 1.617382411649045 0
3.715237965935763 3.121216830274735 0
3.495634334985378 3.25756155361415 0
4.217680007305434 3.02151965528589 0
7.723680872719361 1.050653023869321 0
6.939622911265261 2.973605765543949 0
3.471439308435978 5.28911074038976 0
4.680314807244701 5.058976129327814 0
7.225059621711708 5.201913727506449 0
0.2856220008041208 3.502603880689306 0
6.089611697055113 5.632998390219626 0
2.735462549734927 3.561663775789504 0
4.505631760480237 2.240245504712167 0
7.565499931411932 0.7578330945148215 0
2.207874792427622 3.616379912749439 0
0.3247595264191645 5.43749999998343 0
0.5796937584662213 2.161401025314787 0
0.2700177249526516 0.4767542243041103 0
6.373137559202243 3.179361292743037 0
6.393033754075114 3.493805222021085 0
1.762024378162065 5.378008035777451 0
0.9836588311955548 3.359884485636054 0
6.139340131775392 2.671266348014206 0
0.6949600017194154 1.335944199473203 0
0.8460113530731487 1.624445603587295 0
4.257177276171354 2.08766811762943 0
4.420367131599509 0.3530522137853159 0
7.563096676857346 5.198509704882988 0
7.741273756445894 4.897823077549564 0
7.889438290562554 0.7238704784763629 0
4.964921869926111 3.703481721439341 0
2.289196852662245 4.556094574419268 0
6.121399144366825 3.657058552098817 0
6.375498711182019 3.853681722232835 0
9.080764625606427 1.657421036240038 0
8.904178071740922 1.967197973212467 0
6.768681443446551 2.182853409522528 0
6.439396241213425 2.219277582813189 0
9.312033123900351 1.943655251855343 0
5.905070993790482 0.2473457416362657 0
9.096273918369327 1.049670928203486 0
2.242460949243236 5.090331191373602 0
6.380020567117417 1.045361259900969 0
4.112916922960113 3.244227485692918 0
4.260922150392295 3.515521083744481 0
6.389502621669275 1.628789731329553 0
3.297799502614716 5.520104916954815 0
9.080520593390421 2.250904959508575 0
7.913456869079894 5.182876581536037 0
8.095307547393345 4.890405060931625 0
8.277919454886842 5.189744629636562 0
8.453782640014525 4.885174065649974 0
8.26954235139717 4.580550095038983 0
8.62603261976837 4.572434161253413 0
8.81131002003951 4.877923642004172 0
8.982679557491309 4.563655247149308 0
8.426388161214589 4.288328270142003 0
9.157073015979339 4.877236631158072 0
9.00406188914568 5.164200836995193 0
9.372845568382473 5.221659478905545 0
1.340023080568779 3.663744647311397 0
1.765053649704021 3.304847706810941 0
3.001113469146008 5.50130142910327 0
7.227991131210894 0.7708966228362686 0
6.648792475824615 3.336629175413649 0
2.448607933870522 4.020923130702583 0
2.410436551290152 4.277718438958287 0
1.40141846900448 5.363282144321634 0
1.238742984692609 5.036438330098294 0
4.066707426920741 2.765408542560824 0
6.353629372700979 4.890928093991651 0
6.517850753697778 5.215310440102219 0
6.197215147453805 4.585156126695257 0
6.522791429648883 0.7606981858969896 0
7.393111331080549 5.478683570568962 0
2.548403883454049 1.656465968730046 0
2.349533291656042 0.7168834535602195 0
3.019057899498518 3.451857207993506 0
3.268346099549444 3.660579122843566 0
8.734831276114123 2.228964096855858 0
3.621247417339941 5.051041367349557 0
3.771248225267113 5.298742511532827 0
6.138892729030434 0.7613941995599894 0
7.689123268664246 0.4950802575272473 0
6.372530133630576 4.24305471691872 0
0.5474946809147755 1.085864029804984 0
0.8291839500704477 0.5869491830993343 0
1.116682444981262 0.6004372713703776 0
0.4134881626201716 0.8715543204726545 0
3.080189175016364 0.7064194978150737 0
1.683449960818993 0.2529686905894416 0
9.369244731751008 4.56392833641673 0
9.135356955086058 4.271154259545883 0
1.109884808112862 0.2228392626548897 0
8.930827505991758 0.7298631421046338 0
8.557031575045169 0.6969416891065876 0
9.336623405115544 0.7332871121153595 0
9.455489996141317 0.3399293477665984 0
1.974721321373219 0.7764762532496385 0
3.445046115371999 0.7003277623941001 0
0.5199517092465553 0.2760569847015024 0
8.033828596218811 3.783701021849649 0
8.063887425199262 4.30614004803218 0
5.794306295666786 0.5329945051016617 0
2.924011546443268 2.206225947431443 0
1.506128486216843 0.4584634972626348 0
3.724829413776187 3.422144095008337 0
6.472237389985386 2.711690029968186 0
8.020444195186803 2.710874367164998 0
8.378587973993827 2.720227916215802 0
8.199945968706077 2.466291297925697 0
0.9778391011886508 2.183346907441774 0
1.166805848471348 1.847437110549667 0
2.435556844913881 0.3709829281196024 0
3.256080959349124 0.3595875502865875 0
3.82234850811358 0.6719919647221424 0
4.0218293970609 0.3397179286462304 0
4.19006941510217 0.6879567962183063 0
4.007981243457809 0.9894042216552987 0
1.279168005568784 0.8167473950982421 0
2.521938330393485 3.278534047507636 0
3.834263962799343 2.634773499531606 0
4.985788817570078 3.259574317124625 0
3.943086125120056 3.00150007887284 0
2.096176058699561 5.648318818753207 0
4.530177503279385 1.957481025371092 0
4.275206853695108 1.780513867536529 0
4.341802165862957 1.444845842242749 0
3.940971496104667 2.211005171071315 0
5.327105542792442 3.65971655132813 0
5.622907281505977 3.676297592471395 0
4.575019526496223 3.706492256584943 0
6.848372649588744 0.262982982839031 0
8.387038076515616 3.792420034000491 0
5.858333517225796 1.324822315037163 0
1.739568964179425 2.185322205826177 0
2.130746255857647 2.183843987314886 0
7.213635017451594 2.967899227351477 0
8.299609580596277 5.714119061505763 0
9.047002703477039 5.700187833093221 0
4.489613864984206 5.715600480671684 0
4.299351203365473 5.45493379324324 0
9.670736105257149 2.086010288943159 0
6.4736718334391 5.699537199503078 0
0.4149355384371211 1.346981475267269 0
9.630645660403287 1.337642076884533 0
5.822706937056784 2.087796295957284 0
5.817159334841845 2.458360167687885 0
8.705130013176007 0.344476186730457 0
3.481387165113481 4.792562512576438 0
7.90707773759568 4.599091753028846 0
4.683665881832025 1.258880356858866 0
9.095078503815882 2.731851387854401 0
6.166666666666666 0.2405626121623527 0
2.700220961764247 0.6889034540092066 0
9.695996745690113 4.390479692354971 0
6.639523865664277 3.669281234349649 0
6.960174981439016 3.493491703986773 0
8.647522340051184 5.165445688549675 0
9.105876972176562 3.795315622758478 0
0.2783533147346078 1.974013792407548 0
0.5556560715576163 1.809023108674492 0
7.051360545482386 1.048387208718986 0
8.777276720189498 4.288528022025662 0
3.629422091979835 1.006474322128466 0
8.565687731525127 1.942419245251748 0
2.919418634772581 1.633950917590814 0
6.871670790058017 0.7775372104306337 0
8.397033178427364 1.02248990398064 0
7.230197986540198 1.911890360666968 0
1.578951370036095 1.887766198855193 0
7.886189252985526 1.343055136473002 0
9.253580593716048 1.352377830997837 0
6.877067338331238 5.189038932614358 0
6.140457490947409 5.201231313181831 0
2.160556450398726 1.639302886403228 0
6.224026746706993 1.333958848832929 0
6.720926732133288 4.30717159697558 0
6.130318388606987 2.311652617958995 0
6.185489332110117 1.925566699237681 0
7.554860709400734 4.607391509872799 0
4.378470216429075 4.841777984095439 0
3.581059410618138 3.712382261810542 0
4.686186415235016 5.418541072929925 0
9.703453061390174 5.089577424592399 0
3.875 5.783493649053898 0
3.977007516104709 1.63005153687383 0
7.099856497150406 3.788573152412191 0
4.357381304892826 1.036955459146769 0
7.077282114777423 2.187046477505544 0
2.523178540117693 3.766402678793874 0
8.058082863285707 1.023778213878362 0
4.723559090773816 0.5462008353028454 0
9.447888349550993 2.735326058837037 0
2.141474272274777 3.314899318471964 0
7.091122656320927 3.196452041538406 0
6.109031880302872 4.016712895936998 0
0.305844693609505 5.063134773328294 0
0.6477782853101738 5.23664937512434 0
8.230495151318324 0.6586829405516156 0
9.452433475318493 3.766751160340334 0
0.5645637644952979 5.677555222312439 0
9.702122584158976 5.439591373677907 0
3.967928262108779 5.499325108546859 0
4.095529625208142 5.165351775726575 0
0.5361900073003778 0.5929849731943223 0
5.800947680695133 5.394325766032363 0
0.5482800919349865 3.297478313898968 0
0.6055376748121464 3.679521135040495 0
6.628181207642784 3.00985349461459 0
6.919712118929983 1.911732643908797 0
5.852355120834106 4.591963020318397 0
1.022171397870825 5.263757389601759 0
2.349887714705873 5.37713740756468 0
2.681266561274407 5.360504779600245 0
1.823094333584478 0.5174449071992974 0
2.395411071134093 4.808524395312686 0
1.407421920405995 3.310050098814843 0
7.865980152044552 4.039522105073753 0
0.9858439173165165 3.740630053597589 0
6.572076230327572 1.916109202356142 0
1.369172582689426 5.749155093786361 0
3.626103876694069 5.570363489211967 0
0.9718699194620666 4.849035508571868 0
7.835914890933944 2.462925563539113 0
9.700007496822892 0.5775532780366179 0
3.111279807077235 1.922673693740158 0
3.383931480150848 5.771292548669196 0
1.705808510542233 5.698218862924778 0
1.682394153334002 3.601389290111638 0
7.043408276636839 5.460300587611856 0
9.398610878862034 2.246304231814952 0
2.78558426290906 4.364452517193835 0
2.18331026564243 4.341172034000823 0
2.552904744024674 4.508679631250688 0
2.726917952111486 1.921768923580705 0
7.384046337175083 0.5075856693635392 0
3.257031922321314 3.353938710477713 0
0.1884582313733898 1.372772857651568 0
8.376010969636233 2.206656721957922 0
7.938575901020165 0.3468618367901032 0
3.733701141420607 2.429322266145104 0
6.636293953476592 4.000990143090389 0
1.440864617988974 4.782693414900089 0
7.745495742587765 5.461624337700518 0
4.415091898270087 5.176373311319498 0
1.254550268379383 0.4024859208107948 0
5.853631939867968 3.516318476315913 0
4.093070513776688 1.279287194126201 0
4.762949740221743 2.242993389583639 0
2.677983927252121 4.796391511824272 0
8.030898191578164 2.194905465069339 0
2.939753783783082 5.239798810100451 0
6.32874118526075 0.4960930197804686 0
9.428439520134242 4.253861382122362 0
4.805925288470061 3.478136077544382 0
9.405971185742089 1.083877061918069 0
0.1895978247465959 0.8879528685608412 0
4.313840277860403 2.831271461052435 0
7.57205168733471 5.747259355286747 0
1.163005485872504 1.546182158366816 0
6.345855525406957 2.483710983503919 0
6.084275219278586 1.07880118132172 0
8.213153849456896 4.025284048133884 0
8.102917858857648 5.440808679414257 0
2.077075931186304 5.313483453938741 0
9.38760097920928 1.612070639207387 0
0.558309876551739 1.548183793970123 0
0.8238033548607502 1.923639850814744 0
7.204472238356184 5.734787540664013 0
4.539429924028702 3.440699179591147 0
3.470822707783567 3.485239101765775 0
0.9722533872417443 0.4102068143358718 0
1.940232144205259 1.923957047446719 0
4.250000000000003 3.791308170073343 0
1.445836123386288 1.59692746054042 0
2.52868828645013 5.106246524227245 0
7.558698336081838 0.239179226542285 0
8.481132194871723 5.44435780429445 0
5.118825669036547 3.48647324107364 0
2.339530558166309 1.917008073096524 0
4.043163284497365 1.928278377472137 0
9.143228303938319 5.434549736005064 0
8.846335999684943 5.44006288372165 0
4.790293036434429 1.971483156654839 0
7.308345651545438 3.168044930985201 0
7.034189016700556 0.5133015184461003 0
2.804940618600709 3.269088120089129 0
0.2440169358559379 0.2440169358559379 0
9.456158052584438 4.902937979256661 0
5.572361864054398 3.38637220050407 0
6.673512153942253 0.5085565477131684 0
8.572623939320767 4.026839622529238 0
3.97924877476275 3.429974938805449 0
2.822763407659637 5.723383138434549 0
6.094835163866903 1.585740217651634 0
9.737539498154032 2.737652176480829 0
9.729870645297927 5.734667748991398 0
9.738553283011369 3.7614467169893 0
6.066735574083023 0.4556780156481476 0
4.480072047470654 0.7029998282214257 0
9.730464061297239 0.269535938700961 0
7.239582835864385 3.597240057117902 0
4.722789691888512 4.769857661988702 0
0.2759558863544162 5.727969615793979 0
0.2493871924179182 2.2604162968778 0
8.555066743212704 2.476491462545992 0
5.769857661979296 5.72278969189441 0
3.123343794136502 5.703216406632366 0
4.758192929514613 5.74570852994249 0
5.892159342978688 3.837382422930753 0
3.895063840510974 3.243812685730856 0
8.934772902389437 4.027745915074549 0
0.2541266060241558 4.750571971430778 0
0.7044607444458677 0.4137732916362026 0
4.751007466697665 0.2512791812461283 0
2.617381705018006 4.231576373176365 0
3.643902617131904 2.625 0
6.681278319785246 5.451094350702445 0
6.079630443563394 4.31605306740658 0
1.940010488214387 3.504357186303203 0
3.750409940236711 4.842488160096244 0
5.689875457891453 0.2310680493477956 0
3.852965380467841 5.050650636790333 0
9.283035084478581 4.008376363800465 0
6.349962219081068 5.427235816226414 0
6.855741287928576 3.202990637608626 0
0.2445581963255625 3.226683105584322 0
0.2523830753854883 3.770473642871485 0
8.913889549350797 2.485514445628263 0
2.637680131216858 4 0
3.157803405280901 3.848840933682095 0
6.069883273225057 4.85564275101709 0
2.455400698993818 3.537508040406365 0
1.350899378872406 0.6057303786680298 0
3.888748494931044 2.81210090734566 0
9.281324131088802 2.502278097095961 0
0.2706742463646525 0.7002566793022668 0
6.860157970305755 3.793816618459099 0
2.130070680756191 0.5576514234425771 0
6.335231342579817 2.927748888730247 0
$EndNodes
$Elements
37 1304 1 1304
1 1 1 3
1 1 37 
2 37 38 
3 38 2 
1 2 1 2
4 2 39 
5 39 5 
1 3 1 3
6 5 40 
7 40 41 
8 41 6 
1 7 1 3
9 1 42 
10 42 43 
11 43 3 
1 8 1 2
12 3 44 
13 44 4 
1 9 1 9
14 4 45 
15 45 46 
16 46 47 
17 47 48 
18 48 49 
19 49 50 
20 50 51 
21 51 52 
22 52 9 
1 10 1 7
23 9 53 
24 53 54 
25 54 55 
26 55 56 
27 56 57 
28 57 58 
29 58 10 
1 11 1 2
30 10 59 
31 59 11 
1 12 1 2
32 11 60 
33 60 12 
1 17 1 2
34 15 61 
35 61 14 
1 21 1 5
36 16 62 
37 62 63 
38 63 64 
39 64 65 
40 65 20 
1 22 1 2
41 20 66 
42 66 19 
1 23 1 5
43 19 67 
44 67 68 
45 68 69 
46 69 70 
47 70 18 
1 24 1 3
48 18 71 
49 71 72 
50 72 8 
1 25 1 2
51 21 73 
52 73 22 
1 26 1 5
53 22 74 
54 74 75 
55 75 76 
56 76 77 
57 77 23 
1 27 1 7
58 21 78 
59 78 79 
60 79 80 
61 80 81 
62 81 82 
63 82 83 
64 83 24 
1 28 1 4
65 26 84 
66 84 85 
67 85 86 
68 86 23 
1 29 1 5
69 24 87 
70 87 88 
71 88 89 
72 89 90 
73 90 25 
1 32 1 8
74 27 91 
75 91 92 
76 92 93 
77 93 94 
78 94 95 
79 95 96 
80 96 97 
81 97 13 
1 33 1 3
82 12 98 
83 98 99 
84 99 27 
1 34 1 9
85 14 100 
86 100 101 
87 101 102 
88 102 103 
89 103 104 
90 104 105 
91 105 106 
92 106 107 
93 107 8 
1 35 1 9
94 6 108 
95 108 109 
96 109 110 
97 110 111 
98 111 112 
99 112 113 
100 113 114 
101 114 115 
102 115 15 
1 36 1 12
103 25 116 
104 116 117 
105 117 118 
106 118 119 
107 119 120 
108 120 121 
109 121 122 
110 122 123 
111 123 124 
112 124 125 
113 125 126 
114 126 7 
1 39 1 7
115 7 127 
116 127 128 
117 128 129 
118 129 130 
119 130 131 
120 131 132 
121 132 31 
1 40 1 7
122 31 133 
123 133 134 
124 134 135 
125 135 136 
126 136 137 
127 137 138 
128 138 30 
1 41 1 2
129 30 139 
130 139 29 
1 42 1 7
131 29 140 
132 140 141 
133 141 142 
134 142 143 
135 143 144 
136 144 145 
137 145 28 
1 43 1 2
138 13 146 
139 146 34 
1 44 1 3
140 34 147 
141 147 148 
142 148 35 
1 45 1 8
143 35 149 
144 149 150 
145 150 151 
146 151 152 
147 152 153 
148 153 154 
149 154 155 
150 155 36 
1 46 1 8
151 28 156 
152 156 157 
153 157 158 
154 158 159 
155 159 160 
156 160 161 
157 161 162 
158 162 36 
1 47 1 9
159 17 163 
160 163 164 
161 164 165 
162 165 166 
163 166 167 
164 167 168 
165 168 169 
166 169 170 
167 170 32 
1 48 1 2
168 32 171 
169 171 33 
1 49 1 3
170 33 172 
171 172 173 
172 173 26 
1 50 1 4
173 16 174 
174 174 175 
175 175 176 
176 176 17 
2 1 2 1128
177 310 251 441 
178 372 299 515 
179 187 351 455 
180 299 372 595 
181 439 440 499 
182 351 187 579 
183 439 202 440 
184 247 511 514 
185 438 202 439 
186 511 247 525 
187 511 525 536 
188 547 529 563 
189 507 327 646 
190 342 512 553 
191 67 272 542 
192 380 247 534 
193 74 22 222 
194 178 398 401 
195 247 380 525 
196 499 440 561 
197 100 390 550 
198 433 507 646 
199 251 338 441 
200 334 373 530 
201 498 516 535 
202 373 334 532 
203 181 408 461 
204 246 395 416 
205 222 22 230 
206 407 217 461 
207 358 492 533 
208 408 407 461 
209 396 342 553 
210 333 380 541 
211 217 407 409 
212 11 59 325 
213 237 27 603 
214 265 357 606 
215 217 409 410 
216 298 511 536 
217 380 534 541 
218 178 401 570 
219 333 437 578 
220 416 352 635 
221 334 520 521 
222 344 529 547 
223 470 184 508 
224 390 100 600 
225 215 498 535 
226 357 265 587 
227 552 257 564 
228 433 102 507 
229 334 521 532 
230 408 181 512 
231 492 350 533 
232 3 43 214 
233 27 312 603 
234 264 547 563 
235 563 529 589 
236 316 382 436 
237 310 441 554 
238 391 78 495 
239 327 250 503 
240 437 333 541 
241 430 431 501 
242 504 481 512 
243 4 179 403 
244 423 552 564 
245 59 10 562 
246 213 457 551 
247 3 214 406 
248 45 4 403 
249 344 379 546 
250 494 517 558 
251 20 65 231 
252 398 178 457 
253 400 307 432 
254 307 295 432 
255 250 378 503 
256 49 48 427 
257 170 32 540 
258 494 269 517 
259 434 310 554 
260 397 346 509 
261 78 391 644 
262 48 207 427 
263 64 536 556 
264 115 15 193 
265 379 344 547 
266 323 487 519 
267 24 195 623 
268 184 470 615 
269 207 402 427 
270 356 316 436 
271 525 381 536 
272 265 419 495 
273 138 30 182 
274 426 389 467 
275 215 535 540 
276 536 381 556 
277 346 397 555 
278 183 459 492 
279 409 270 538 
280 29 190 450 
281 207 426 467 
282 179 44 406 
283 487 323 638 
284 416 395 612 
285 155 154 410 
286 403 179 418 
287 444 357 587 
288 29 140 180 
289 154 217 410 
290 189 403 528 
291 374 530 542 
292 44 3 406 
293 342 504 512 
294 20 242 344 
295 185 49 427 
296 261 431 477 
297 402 207 467 
298 382 316 571 
299 497 372 515 
300 289 389 411 
301 185 412 428 
302 404 203 468 
303 431 428 477 
304 10 58 562 
305 98 12 274 
306 13 97 635 
307 142 220 422 
308 210 335 460 
309 396 553 590 
310 325 59 562 
311 375 527 607 
312 21 78 644 
313 196 114 417 
314 438 325 562 
315 458 485 579 
316 457 213 580 
317 516 394 535 
318 415 227 463 
319 412 185 427 
320 573 425 588 
321 535 359 540 
322 91 210 460 
323 459 491 492 
324 553 150 590 
325 271 563 589 
326 430 501 613 
327 309 418 647 
328 287 285 467 
329 329 109 424 
330 339 429 430 
331 339 51 429 
332 97 416 635 
333 189 45 403 
334 410 409 538 
335 20 231 242 
336 295 293 432 
337 5 40 213 
338 428 412 477 
339 183 492 608 
340 357 444 583 
341 82 343 444 
342 29 180 190 
343 443 24 623 
344 312 442 603 
345 168 221 437 
346 207 47 426 
347 442 312 592 
348 336 297 398 
349 38 2 570 
350 454 496 558 
351 149 35 177 
352 91 27 210 
353 547 545 629 
354 230 22 264 
355 297 295 307 
356 293 291 309 
357 512 181 553 
358 413 330 518 
359 105 334 530 
360 511 328 514 
361 425 483 588 
362 103 104 374 
363 274 12 304 
364 459 460 491 
365 395 246 575 
366 193 15 208 
367 469 555 651 
368 377 469 470 
369 138 182 414 
370 296 295 297 
371 356 436 624 
372 292 291 293 
373 424 192 425 
374 187 458 579 
375 481 408 512 
376 182 30 223 
377 290 289 291 
378 24 87 195 
379 264 545 547 
380 177 35 445 
381 79 80 265 
382 33 172 216 
383 378 379 629 
384 432 309 647 
385 51 50 429 
386 312 99 435 
387 293 309 432 
388 285 402 467 
389 147 34 466 
390 97 96 416 
391 190 218 450 
392 270 409 569 
393 454 453 496 
394 294 293 295 
395 440 202 464 
396 141 142 422 
397 96 246 416 
398 378 629 643 
399 168 169 221 
400 113 196 449 
401 469 346 555 
402 425 337 581 
403 423 422 619 
404 304 12 316 
405 331 332 377 
406 110 192 424 
407 81 82 444 
408 108 109 329 
409 186 119 582 
410 399 307 400 
411 411 389 652 
412 308 307 399 
413 46 189 426 
414 35 148 445 
415 455 351 544 
416 210 27 237 
417 495 419 584 
418 20 344 546 
419 331 377 522 
420 389 287 467 
421 290 291 292 
422 297 307 308 
423 530 373 542 
424 82 83 343 
425 389 426 652 
426 297 308 398 
427 148 212 445 
428 137 138 414 
429 192 448 483 
430 483 448 586 
431 37 38 330 
432 46 45 189 
433 301 302 331 
434 94 183 447 
435 365 415 463 
436 291 289 411 
437 227 415 531 
438 552 423 619 
439 48 47 207 
440 218 240 318 
441 194 122 451 
442 438 562 597 
443 50 185 429 
444 262 258 478 
445 167 168 437 
446 110 111 192 
447 75 74 462 
448 397 306 490 
449 76 75 269 
450 50 49 185 
451 343 83 442 
452 202 438 597 
453 463 227 493 
454 491 350 492 
455 192 111 448 
456 341 463 493 
457 527 221 607 
458 296 297 336 
459 218 318 450 
460 188 136 446 
461 137 414 446 
462 109 110 424 
463 75 462 634 
464 421 141 422 
465 292 293 294 
466 5 213 551 
467 288 287 289 
468 211 124 452 
469 414 182 531 
470 288 289 290 
471 183 93 459 
472 47 46 426 
473 185 428 429 
474 442 24 443 
475 421 422 423 
476 118 186 456 
477 246 95 447 
478 258 257 478 
479 420 335 653 
480 101 102 433 
481 430 428 431 
482 56 55 464 
483 294 295 296 
484 88 89 245 
485 448 112 449 
486 210 301 335 
487 96 95 246 
488 112 113 449 
489 377 332 469 
490 158 187 455 
491 52 51 339 
492 480 599 604 
493 92 91 460 
494 152 181 461 
495 118 119 186 
496 121 122 194 
497 123 211 451 
498 313 483 586 
499 336 398 457 
500 365 369 415 
501 187 159 458 
502 202 56 464 
503 331 302 332 
504 93 92 459 
505 94 93 183 
506 78 79 495 
507 360 348 392 
508 63 62 298 
509 125 299 452 
510 337 425 573 
511 398 308 401 
512 300 157 455 
513 156 157 300 
514 152 151 181 
515 362 364 365 
516 385 306 397 
517 123 124 211 
518 289 287 389 
519 210 237 301 
520 122 123 451 
521 471 591 596 
522 125 126 299 
523 203 404 602 
524 95 94 447 
525 111 112 448 
526 376 549 599 
527 265 80 587 
528 160 270 458 
529 352 416 612 
530 429 428 430 
531 160 161 270 
532 459 92 460 
533 426 189 652 
534 362 365 463 
535 433 324 600 
536 324 433 646 
537 124 125 452 
538 261 499 561 
539 348 262 478 
540 68 67 373 
541 142 143 220 
542 607 170 621 
543 217 153 461 
544 473 329 474 
545 425 192 483 
546 113 114 196 
547 487 245 519 
548 158 159 187 
549 153 152 461 
550 83 24 442 
551 249 311 319 
552 57 56 202 
553 114 115 417 
554 55 232 464 
555 117 118 456 
556 157 158 455 
557 159 160 458 
558 136 137 446 
559 301 237 302 
560 190 197 218 
561 599 445 604 
562 276 244 475 
563 378 239 379 
564 238 310 382 
565 309 291 411 
566 243 236 244 
567 259 260 481 
568 365 366 369 
569 220 143 465 
570 365 364 366 
571 154 153 217 
572 355 386 395 
573 369 366 476 
574 280 376 475 
575 501 431 561 
576 280 326 376 
577 355 276 386 
578 368 404 405 
579 61 14 267 
580 19 66 239 
581 73 21 281 
582 60 11 238 
583 368 370 404 
584 214 43 413 
585 366 368 476 
586 131 132 303 
587 205 236 243 
588 278 340 341 
589 361 557 577 
590 382 310 434 
591 475 376 480 
592 130 131 468 
593 368 367 370 
594 134 135 472 
595 131 303 468 
596 366 367 368 
597 275 244 276 
598 276 475 480 
599 129 130 203 
600 323 117 456 
601 548 388 593 
602 81 444 587 
603 245 89 519 
604 143 144 465 
605 236 235 280 
606 341 362 463 
607 79 265 495 
608 85 86 320 
609 203 130 468 
610 135 136 188 
611 260 305 481 
612 347 262 348 
613 164 165 247 
614 351 348 360 
615 244 236 475 
616 367 364 471 
617 288 290 488 
618 460 335 491 
619 364 363 471 
620 368 405 476 
621 55 54 232 
622 252 208 441 
623 392 348 478 
624 135 188 472 
625 266 358 533 
626 362 363 364 
627 105 106 334 
628 386 276 480 
629 99 98 435 
630 366 364 367 
631 236 280 475 
632 233 277 278 
633 116 117 323 
634 102 103 507 
635 305 407 408 
636 84 85 496 
637 489 447 608 
638 242 268 354 
639 370 367 371 
640 345 560 623 
641 402 284 412 
642 175 176 328 
643 527 375 565 
644 285 284 402 
645 303 513 637 
646 77 76 494 
647 256 284 285 
648 402 412 427 
649 370 371 372 
650 205 243 482 
651 255 253 261 
652 88 245 524 
653 341 361 362 
654 140 141 421 
655 226 233 493 
656 148 147 212 
657 205 235 236 
658 371 367 471 
659 255 261 477 
660 243 244 266 
661 341 340 361 
662 256 285 286 
663 286 287 288 
664 43 42 413 
665 27 99 312 
666 280 235 317 
667 347 348 351 
668 2 39 178 
669 286 285 287 
670 218 219 240 
671 591 211 596 
672 332 346 469 
673 418 309 528 
674 412 284 477 
675 167 437 541 
676 222 248 249 
677 198 200 482 
678 256 255 284 
679 305 408 481 
680 284 255 477 
681 278 321 340 
682 275 276 355 
683 4 44 179 
684 260 258 262 
685 332 345 346 
686 195 87 524 
687 290 313 488 
688 286 288 388 
689 380 381 525 
690 228 225 229 
691 260 263 305 
692 76 269 494 
693 263 262 347 
694 362 361 363 
695 305 353 407 
696 222 230 248 
697 278 341 493 
698 305 263 353 
699 205 204 235 
700 407 353 409 
701 196 417 548 
702 319 359 535 
703 496 320 558 
704 280 317 326 
705 567 303 637 
706 206 258 259 
707 129 203 497 
708 254 256 479 
709 190 191 197 
710 260 262 263 
711 278 277 321 
712 200 201 204 
713 256 286 479 
714 57 202 597 
715 30 139 184 
716 266 244 275 
717 286 388 479 
718 200 204 205 
719 198 199 200 
720 543 186 582 
721 279 383 384 
722 240 241 420 
723 233 234 277 
724 259 258 260 
725 447 183 608 
726 522 377 639 
727 470 508 639 
728 254 255 256 
729 235 204 484 
730 390 283 391 
731 340 321 387 
732 243 266 523 
733 163 164 514 
734 383 306 385 
735 317 235 484 
736 279 234 306 
737 229 225 500 
738 206 201 257 
739 200 199 201 
740 261 253 499 
741 198 191 199 
742 327 503 646 
743 566 386 604 
744 510 328 511 
745 326 317 342 
746 206 257 258 
747 204 201 206 
748 133 134 513 
749 144 145 506 
750 266 275 358 
751 531 415 576 
752 106 107 520 
753 418 179 559 
754 227 226 493 
755 329 424 581 
756 404 468 567 
757 290 292 313 
758 249 319 393 
759 353 263 485 
760 263 347 485 
761 384 383 487 
762 218 197 219 
763 209 208 252 
764 526 221 527 
765 200 205 482 
766 332 302 345 
767 233 278 493 
768 103 374 507 
769 209 252 253 
770 388 288 488 
771 127 128 515 
772 128 129 497 
773 308 399 518 
774 326 342 396 
775 485 458 569 
776 195 524 632 
777 277 234 279 
778 226 228 233 
779 34 352 466 
780 478 257 552 
781 228 229 490 
782 241 219 349 
783 240 219 241 
784 279 306 383 
785 197 191 198 
786 321 277 486 
787 254 253 255 
788 317 484 504 
789 437 221 526 
790 335 301 653 
791 492 358 608 
792 100 101 600 
793 212 147 466 
794 172 173 453 
795 233 228 234 
796 238 251 310 
797 169 170 607 
798 319 311 359 
799 440 464 501 
800 431 261 561 
801 198 482 502 
802 209 253 254 
803 68 373 532 
804 232 54 505 
805 241 349 350 
806 204 206 484 
807 206 259 484 
808 29 450 598 
809 549 177 599 
810 279 384 486 
811 339 430 613 
812 306 234 490 
813 560 443 623 
814 64 63 536 
815 275 355 489 
816 277 279 486 
817 85 320 496 
818 33 216 498 
819 380 273 381 
820 175 328 510 
821 298 510 511 
822 224 226 227 
823 40 41 473 
824 502 482 523 
825 333 273 380 
826 358 275 489 
827 247 165 534 
828 213 473 474 
829 98 274 435 
830 401 518 650 
831 464 232 501 
832 304 316 356 
833 224 225 226 
834 226 225 228 
835 267 14 314 
836 216 453 454 
837 281 21 282 
838 268 273 333 
839 250 239 378 
840 54 53 505 
841 267 434 630 
842 264 22 545 
843 224 223 225 
844 484 259 504 
845 161 162 538 
846 240 420 522 
847 32 171 215 
848 267 314 436 
849 248 230 271 
850 234 228 490 
851 465 144 506 
852 344 242 529 
853 253 252 499 
854 259 481 504 
855 488 586 593 
856 395 386 566 
857 296 336 337 
858 539 479 548 
859 441 338 594 
860 397 490 555 
861 174 175 510 
862 394 516 517 
863 424 425 581 
864 414 531 576 
865 190 180 191 
866 439 499 594 
867 417 193 539 
868 151 150 553 
869 421 423 537 
870 314 14 315 
871 318 240 522 
872 346 345 509 
873 330 413 601 
874 197 198 502 
875 149 177 590 
876 115 193 417 
877 134 472 513 
878 529 354 589 
879 349 219 502 
880 238 11 251 
881 419 265 606 
882 557 194 577 
883 104 105 530 
884 196 548 593 
885 373 67 542 
886 249 248 311 
887 268 231 273 
888 349 502 523 
889 164 247 514 
890 342 317 504 
891 182 224 531 
892 180 140 421 
893 376 326 549 
894 474 329 581 
895 6 108 618 
896 225 223 500 
897 28 156 609 
898 66 20 546 
899 442 443 603 
900 22 73 545 
901 89 90 519 
902 374 104 530 
903 219 197 502 
904 379 239 546 
905 271 527 565 
906 19 239 250 
907 145 28 609 
908 377 470 639 
909 126 7 610 
910 401 308 518 
911 450 318 508 
912 1 37 601 
913 42 1 601 
914 7 127 610 
915 334 106 520 
916 182 223 224 
917 359 311 375 
918 316 12 571 
919 338 438 439 
920 128 497 515 
921 447 489 575 
922 393 319 394 
923 506 300 649 
924 242 354 529 
925 444 343 568 
926 70 69 521 
927 516 454 517 
928 440 501 561 
929 26 84 622 
930 523 266 533 
931 30 184 615 
932 193 209 539 
933 482 243 523 
934 72 71 322 
935 121 194 572 
936 526 527 589 
937 304 356 357 
938 354 268 578 
939 413 518 627 
940 404 370 602 
941 422 220 619 
942 132 31 611 
943 31 133 611 
944 642 465 649 
945 216 454 516 
946 193 208 209 
947 177 549 590 
948 559 406 585 
949 179 406 559 
950 520 322 521 
951 361 340 557 
952 357 356 606 
953 405 404 567 
954 180 421 537 
955 521 69 532 
956 189 528 652 
957 61 267 630 
958 314 315 419 
959 417 539 548 
960 360 642 649 
961 12 60 571 
962 18 70 641 
963 335 420 574 
964 321 486 543 
965 300 455 544 
966 23 77 616 
967 409 353 569 
968 17 163 617 
969 87 88 524 
970 242 231 268 
971 254 479 539 
972 90 25 620 
973 403 418 528 
974 300 544 649 
975 41 6 618 
976 282 21 283 
977 524 385 632 
978 527 271 589 
979 176 17 617 
980 223 30 615 
981 452 299 595 
982 173 26 622 
983 238 382 571 
984 457 178 551 
985 474 337 580 
986 213 40 473 
987 191 180 537 
988 526 354 578 
989 9 52 628 
990 34 146 352 
991 62 16 626 
992 19 250 272 
993 518 330 650 
994 355 395 575 
995 345 302 560 
996 36 155 614 
997 162 36 614 
998 86 23 616 
999 107 8 640 
1000 470 500 615 
1001 543 486 631 
1002 257 201 564 
1003 63 298 536 
1004 347 351 579 
1005 25 116 620 
1006 178 39 551 
1007 216 172 453 
1008 171 33 498 
1009 488 313 586 
1010 534 166 541 
1011 246 447 575 
1012 139 29 598 
1013 69 68 532 
1014 400 432 647 
1015 337 336 580 
1016 309 411 528 
1017 165 166 534 
1018 16 174 626 
1019 560 237 603 
1020 456 186 631 
1021 273 231 556 
1022 441 208 554 
1023 155 410 614 
1024 313 292 588 
1025 312 435 592 
1026 53 9 628 
1027 270 161 538 
1028 338 325 438 
1029 458 270 569 
1030 199 191 537 
1031 499 252 594 
1032 222 249 462 
1033 394 319 535 
1034 413 42 601 
1035 498 216 516 
1036 224 227 531 
1037 470 469 651 
1038 350 349 533 
1039 537 423 564 
1040 501 232 613 
1041 415 369 576 
1042 282 324 503 
1043 318 522 639 
1044 166 167 541 
1045 282 283 324 
1046 241 350 574 
1047 524 245 645 
1048 212 566 604 
1049 354 526 589 
1050 65 64 556 
1051 324 283 390 
1052 400 559 585 
1053 324 390 600 
1054 208 15 554 
1055 108 329 618 
1056 351 360 544 
1057 272 250 327 
1058 528 411 652 
1059 73 281 545 
1060 483 313 588 
1061 371 471 596 
1062 239 66 546 
1063 487 383 645 
1064 555 229 651 
1065 251 11 325 
1066 323 456 638 
1067 387 321 543 
1068 209 254 539 
1069 456 631 638 
1070 194 451 577 
1071 605 476 625 
1072 500 470 651 
1073 386 480 604 
1074 272 327 633 
1075 349 523 533 
1076 350 491 574 
1077 327 507 633 
1078 451 211 591 
1079 330 38 650 
1080 213 474 580 
1081 8 72 640 
1082 503 324 646 
1083 520 107 640 
1084 576 369 605 
1085 505 339 613 
1086 369 476 605 
1087 186 543 631 
1088 84 496 622 
1089 177 445 599 
1090 586 449 593 
1091 195 509 623 
1092 71 18 641 
1093 296 337 573 
1094 337 474 581 
1095 215 171 498 
1096 32 215 540 
1097 496 453 622 
1098 251 325 338 
1099 74 222 462 
1100 479 388 548 
1101 435 568 592 
1102 449 196 593 
1103 39 5 551 
1104 181 151 553 
1105 245 487 645 
1106 212 466 566 
1107 77 494 616 
1108 466 352 612 
1109 434 267 648 
1110 221 169 607 
1111 329 473 618 
1112 388 488 593 
1113 391 495 584 
1114 406 214 585 
1115 399 400 585 
1116 119 120 582 
1117 194 557 572 
1118 326 396 549 
1119 392 478 552 
1120 269 75 634 
1121 375 311 565 
1122 249 393 462 
1123 538 162 614 
1124 435 274 568 
1125 503 378 643 
1126 391 283 644 
1127 199 537 564 
1128 231 65 556 
1129 379 547 629 
1130 585 214 627 
1131 302 237 560 
1132 214 413 627 
1133 340 387 557 
1134 494 320 616 
1135 230 264 563 
1136 568 343 592 
1137 343 442 592 
1138 490 229 555 
1139 52 339 628 
1140 282 503 643 
1141 497 203 602 
1142 436 382 648 
1143 37 330 601 
1144 322 520 640 
1145 120 121 572 
1146 476 405 625 
1147 446 414 576 
1148 188 446 605 
1149 468 303 567 
1150 577 451 591 
1151 38 570 650 
1152 419 315 584 
1153 211 452 596 
1154 522 420 653 
1155 320 494 558 
1156 381 273 556 
1157 163 514 617 
1158 201 199 564 
1159 448 449 586 
1160 625 405 637 
1161 60 238 571 
1162 397 509 632 
1163 101 433 600 
1164 248 271 565 
1165 146 13 635 
1166 298 62 626 
1167 390 391 550 
1168 301 331 653 
1169 385 524 645 
1170 271 230 563 
1171 80 81 587 
1172 338 439 594 
1173 445 212 604 
1174 2 178 570 
1175 491 335 574 
1176 220 465 642 
1177 521 322 641 
1178 156 300 609 
1179 353 485 569 
1180 299 126 610 
1181 508 184 598 
1182 304 357 583 
1183 446 576 605 
1184 188 605 625 
1185 372 497 602 
1186 294 296 573 
1187 133 513 611 
1188 170 540 621 
1189 315 550 584 
1190 399 585 627 
1191 58 57 597 
1192 517 454 558 
1193 375 607 621 
1194 363 361 577 
1195 314 419 624 
1196 471 363 591 
1197 363 577 591 
1198 150 149 590 
1199 370 372 602 
1200 292 294 588 
1201 420 241 574 
1202 372 371 595 
1203 480 376 599 
1204 485 347 579 
1205 268 333 578 
1206 437 526 578 
1207 303 132 611 
1208 489 355 575 
1209 311 248 565 
1210 70 521 641 
1211 506 145 609 
1212 514 328 617 
1213 120 572 582 
1214 572 387 582 
1215 184 139 598 
1216 274 304 583 
1217 542 272 633 
1218 294 573 588 
1219 331 522 653 
1220 127 515 610 
1221 450 508 598 
1222 385 397 632 
1223 320 86 616 
1224 472 188 625 
1225 360 392 642 
1226 382 434 648 
1227 323 519 620 
1228 15 61 630 
1229 328 176 617 
1230 116 323 620 
1231 631 384 638 
1232 252 441 594 
1233 267 436 648 
1234 232 505 613 
1235 472 625 637 
1236 339 505 628 
1237 336 457 580 
1238 473 41 618 
1239 500 223 615 
1240 453 173 622 
1241 229 500 651 
1242 358 489 608 
1243 550 391 584 
1244 513 303 611 
1245 410 538 614 
1246 518 399 627 
1247 419 606 624 
1248 517 269 636 
1249 510 298 626 
1250 384 487 638 
1251 444 568 583 
1252 519 90 620 
1253 394 517 636 
1254 300 506 609 
1255 568 274 583 
1256 507 374 633 
1257 509 195 632 
1258 515 299 610 
1259 486 384 631 
1260 383 385 645 
1261 395 566 612 
1262 629 281 643 
1263 509 345 623 
1264 505 53 628 
1265 436 314 624 
1266 174 510 626 
1267 281 282 643 
1268 359 375 621 
1269 387 543 582 
1270 513 472 637 
1271 557 387 572 
1272 392 552 619 
1273 465 506 649 
1274 418 559 647 
1275 392 619 642 
1276 619 220 642 
1277 352 146 635 
1278 374 542 633 
1279 72 322 640 
1280 322 71 641 
1281 554 15 630 
1282 544 360 649 
1283 283 21 644 
1284 549 396 590 
1285 393 394 636 
1286 434 554 630 
1287 595 371 596 
1288 508 318 639 
1289 606 356 624 
1290 452 595 596 
1291 545 281 629 
1292 443 560 603 
1293 566 466 612 
1294 462 393 634 
1295 559 400 647 
1296 634 393 636 
1297 405 567 637 
1298 540 359 621 
1299 562 58 597 
1300 269 634 636 
1301 570 401 650 
1302 14 100 315 
1303 67 19 272 
1304 315 100 550 
$EndElements
