$MeshFormat
4.1 0 8
$EndMeshFormat
$PhysicalNames
5
1 31 "Walls"
1 32 "Inflow_left"
1 33 "Inflow_right"
1 34 "Outflow"
2 35 "Volume"
$EndPhysicalNames
$Entities
24 24 1 0
1 0 0 0 0 
2 0 1 0 0 
3 0 2 0 0 
6 0 6 0 0 
7 2 0 0 0 
8 2 5 0 0 
10 3 0 0 0 
11 4.5 0 0 0 
12 5.5 0 0 0 
13 10 0 0 0 
14 8 6 0 0 
15 7 6 0 0 
18 10 5 0 0 
19 10 4 0 0 
20 10 6 0 0 
21 8 3 0 0 
22 8.5 3 0 0 
23 8.5 2 0 0 
24 4.5 5 0 0 
25 4.5 4 0 0 
26 3 4 0 0 
27 6.5 2 0 0 
28 6.5 3 0 0 
29 7 3 0 0 
1 0 0 0 2 0 0 1 31 2 1 -7 
2 2 0 0 2 5 0 1 31 2 7 -8 
5 3 0 0 4.5 0 0 1 31 2 10 -11 
6 4.5 0 0 5.5 0 0 1 34 2 11 -12 
7 5.5 0 0 10 0 0 1 31 2 12 -13 
8 10 0 0 10 4 0 1 31 2 13 -19 
9 10 4 0 10 5 0 1 33 2 18 -19 
10 10 5 0 10 6 0 1 31 2 18 -20 
11 8 6 0 10 6 0 1 31 2 20 -14 
13 8 3 0 8 6 0 1 31 2 14 -21 
14 8 3 0 8.5 3 0 1 31 2 21 -22 
15 8.5 2 0 8.5 3 0 1 31 2 22 -23 
18 2 5 0 4.5 5 0 1 31 2 8 -24 
19 4.5 4 0 4.5 5 0 1 31 2 24 -25 
20 3 4 0 4.5 4 0 1 31 2 25 -26 
21 3 0 0 3 4 0 1 31 2 26 -10 
23 6.5 2 0 6.5 3 0 1 31 2 27 -28 
24 6.5 3 0 7 3 0 1 31 2 28 -29 
25 7 3 0 7 6 0 1 31 2 29 -15 
26 0 0 0 0 1 0 1 31 2 1 -2 
27 0 1 0 0 2 0 1 32 2 2 -3 
28 0 2 0 0 6 0 1 31 2 3 -6 
29 0 6 0 7 6 0 1 31 2 6 -15 
30 6.5 2 0 8.5 2 0 1 31 2 23 -27 
1 0 0 0 10 6 0 1 35 24 29 -25 -24 -23 -30 -15 -14 -13 -11 -10 9 -8 -7 -6 -5 -21 -20 -19 -18 -2 -1 26 27 28 
$EndEntities
$Nodes
49 530 1 530
0 1 0 1
1
0 -0 0
0 2 0 1
2
0 1 0
0 3 0 1
3
-0 2 0
0 6 0 1
4
0 6 0
0 7 0 1
5
2 0 -0
0 8 0 1
6
2 5 0
0 10 0 1
7
3 0 -0
0 11 0 1
8
4.5 -0 -0
0 12 0 1
9
5.5 -0 -0
0 13 0 1
10
10 0 -0
0 14 0 1
11
8 6 0
0 15 0 1
12
7 6 0
0 18 0 1
13
10 5 0
0 19 0 1
14
10 4 0
0 20 0 1
15
10 6 0
0 21 0 1
16
8 3 0
0 22 0 1
17
8.5 3 0
0 23 0 1
18
8.5 2 0
0 24 0 1
19
4.5 5 0
0 25 0 1
20
4.5 4 0
0 26 0 1
21
3 4 -0
0 27 0 1
22
6.5 2 0
0 28 0 1
23
6.5 3 0
0 29 0 1
24
7 3 0
1 1 0 4
25
26
27
28
0.3999999999991158 0 0
0.7999999999979499 0 0
1.199999999997894 0 0
1.599999999998947 0 0
1 2 0 12
29
30
31
32
33
34
35
36
37
38
39
40
2 0.3846153846150596 0
2 0.7692307692298554 0
2 1.153846153844118 0
2 1.53846153845838 0
2 1.923076923072641 0
2 2.307692307688217 0
2 2.692307692304186 0
2 3.076923076920155 0
2 3.461538461536124 0
2 3.846153846152093 0
2 4.230769230768062 0
2 4.615384615384031 0
1 5 0 3
41
42
43
3.374999999996313 0 0
3.749999999992627 0 0
4.124999999992582 0 0
1 6 0 2
44
45
4.833333333333333 0 0
5.166666666666667 0 0
1 7 0 11
46
47
48
49
50
51
52
53
54
55
56
5.875 0 0
6.25 0 0
6.625 0 0
7 0 0
7.375 0 0
7.75 0 0
8.125 0 0
8.5 0 0
8.875 0 0
9.25 0 0
9.625 0 0
1 8 0 9
57
58
59
60
61
62
63
64
65
10 0.3999999999992587 0
10 0.7999999999982316 0
10 1.199999999997066 0
10 1.5999999999959 0
10 1.999999999994777 0
10 2.399999999995787 0
10 2.79999999999684 0
10 3.199999999997893 0
10 3.599999999998947 0
1 9 0 2
66
67
10 4.666666666666667 0
10 4.333333333333333 0
1 10 0 2
68
69
10 5.333333333333333 0
10 5.666666666666667 0
1 11 0 4
70
71
72
73
9.6 6 0
9.199999999999999 6 0
8.800000000000001 6 0
8.4 6 0
1 13 0 7
74
75
76
77
78
79
80
8 5.624999999999999 0
8 5.249999999999998 0
8 4.874999999999996 0
8 4.499999999999995 0
8 4.124999999999996 0
8 3.749999999999997 0
8 3.374999999999999 0
1 14 0 1
81
8.25 3 0
1 15 0 2
82
83
8.5 2.666666666666667 0
8.5 2.333333333333333 0
1 18 0 6
84
85
86
87
88
89
2.357142857142858 5 0
2.714285714285716 5 0
3.071428571428573 5 0
3.42857142857143 5 0
3.785714285714286 5 0
4.142857142857143 5 0
1 19 0 2
90
91
4.5 4.666666666666667 0
4.5 4.333333333333333 0
1 20 0 3
92
93
94
4.125000000007415 4 0
3.75000000000737 4 0
3.375000000003685 4 0
1 21 0 9
95
96
97
98
99
100
101
102
103
3 3.599999999998334 0
3 3.199999999999999 0
3 2.800000000002774 0
3 2.400000000005547 0
3 2.000000000008235 0
3 1.600000000006657 0
3 1.200000000004993 0
3 0.8000000000033287 0
3 0.4000000000016639 0
1 23 0 2
104
105
6.5 2.333333333333333 0
6.5 2.666666666666667 0
1 24 0 1
106
6.75 3 0
1 25 0 7
107
108
109
110
111
112
113
7 3.374999999997724 0
7 3.749999999996489 0
7 4.124999999997076 0
7 4.499999999997662 0
7 4.874999999998248 0
7 5.249999999998832 0
7 5.624999999999416 0
1 26 0 2
114
115
0 0.3333333333325026 0
0 0.6666666666657889 0
1 27 0 2
116
117
0 1.333333333333333 0
0 1.666666666666667 0
1 28 0 9
118
119
120
121
122
123
124
125
126
0 2.400000000003885 0
0 2.800000000004439 0
0 3.200000000003884 0
0 3.600000000003329 0
0 4.000000000002775 0
0 4.40000000000222 0
0 4.800000000001665 0
0 5.20000000000111 0
0 5.600000000000556 0
1 29 0 17
127
128
129
130
131
132
133
134
135
136
137
138
139
140
141
142
143
0.3888888888887603 6 0
0.7777777777775235 6 0
1.166666666666222 6 0
1.555555555554921 6 0
1.94444444444362 6 0
2.333333333332319 6 0
2.722222222221018 6 0
3.111111111109717 6 0
3.499999999998503 6 0
3.888888888889581 6 0
4.277777777779108 6 0
4.666666666667806 6 0
5.055555555556506 6 0
5.444444444445204 6 0
5.833333333333903 6 0
6.222222222222602 6 0
6.611111111111301 6 0
1 30 0 4
144
145
146
147
8.099999999986679 2 0
7.699999999986678 2 0
7.299999999991119 2 0
6.899999999995559 2 0
2 1 0 383
148
149
150
151
152
153
154
155
156
157
158
159
160
161
162
163
164
165
166
167
168
169
170
171
172
173
174
175
176
177
178
179
180
181
182
183
184
185
186
187
188
189
190
191
192
193
194
195
196
197
198
199
200
201
202
203
204
205
206
207
208
209
210
211
212
213
214
215
216
217
218
219
220
221
222
223
224
225
226
227
228
229
230
231
232
233
234
235
236
237
238
239
240
241
242
243
244
245
246
247
248
249
250
251
252
253
254
255
256
257
258
259
260
261
262
263
264
265
266
267
268
269
270
271
272
273
274
275
276
277
278
279
280
281
282
283
284
285
286
287
288
289
290
291
292
293
294
295
296
297
298
299
300
301
302
303
304
305
306
307
308
309
310
311
312
313
314
315
316
317
318
319
320
321
322
323
324
325
326
327
328
329
330
331
332
333
334
335
336
337
338
339
340
341
342
343
344
345
346
347
348
349
350
351
352
353
354
355
356
357
358
359
360
361
362
363
364
365
366
367
368
369
370
371
372
373
374
375
376
377
378
379
380
381
382
383
384
385
386
387
388
389
390
391
392
393
394
395
396
397
398
399
400
401
402
403
404
405
406
407
408
409
410
411
412
413
414
415
416
417
418
419
420
421
422
423
424
425
426
427
428
429
430
431
432
433
434
435
436
437
438
439
440
441
442
443
444
445
446
447
448
449
450
451
452
453
454
455
456
457
458
459
460
461
462
463
464
465
466
467
468
469
470
471
472
473
474
475
476
477
478
479
480
481
482
483
484
485
486
487
488
489
490
491
492
493
494
495
496
497
498
499
500
501
502
503
504
505
506
507
508
509
510
511
512
513
514
515
516
517
518
519
520
521
522
523
524
525
526
527
528
529
530
6.211324865405188 2.166666666666667 0
4.685471424896249 0.3244105962248388 0
3.331525840641786 2.239431693591847 0
4.788314690745112 4.165135938753723 0
4.802922562875224 3.834931890392944 0
6.703491138665233 3.940392993487366 0
5.694779634158579 0.3049818996037444 0
5.625160739024814 5.683514174917743 0
9.672109139444458 3.830883079726013 0
9.679268542065175 4.85069241305281 0
0.2925841721770722 1.831774785610497 0
6.247409257229538 2.833333333333333 0
6.197235633189146 1.829896143300955 0
5.917624679683045 2.000009385154224 0
5.077256603463063 4.000076977730432 0
5.076007675005777 3.678649626690045 0
4.797948871410463 3.509127469762487 0
5.122694295038098 3.329206100485716 0
4.797126177020222 3.184940096469691 0
8.307645476926391 0.3331262853682279 0
6.303254818320774 3.159831269121514 0
6.695097647557963 4.685692716866203 0
1.647060393877404 2.46052836007366 0
7.5625 0.3247595264191645 0
3.347953260169545 1.390942572374563 0
1.678379554311301 4.806427871082172 0
0.9999999999979218 0.3464101615132463 0
6.853930863207347 0.3778386974732935 0
8.265948092038782 4.332314957836613 0
1.666839972675302 3.269411050996634 0
1.672312310727664 4.040380922279184 0
5.913442555544213 1.658228305769118 0
5.617226238282773 1.831281200536318 0
9.652323694691596 0.9828502025874568 0
1.714802890239113 1.319560360105578 0
4.792895985890221 4.831526412280372 0
3.316129304340222 3.006631225581137 0
8.312993245483625 5.061659080039512 0
5.358456656569663 3.836656650441034 0
5.360704360303179 4.167263814488964 0
5.080347128183207 3.016375104189422 0
4.79687556461859 2.848840230448183 0
0.2847950229711188 1.151291262200617 0
5.616319371137178 1.484640794975208 0
5.316882682459307 1.65960591385038 0
8.752590742770462 2.833333333333333 0
8.772140608255482 3.121511917139737 0
8.288524123518057 1.679397865598083 0
6.20038341366805 1.492479310385769 0
7.087413731499829 1.654714355423278 0
5.313978467625272 1.309593239620743 0
5.011350593214948 1.486153354547041 0
0.3923740574247436 4.638980638287389 0
3.935553691814008 0.300720235788862 0
0.3150440527740628 2.953830502958521 0
0.3333577538109943 3.776673229352858 0
8.773465264772728 2.177151299272071 0
0.9956671903444354 5.608511139067679 0
8.65363755080789 1.665826936832919 0
4.504126482851723 3.022061306080545 0
4.499708617224549 2.67883568960607 0
5.646831782435144 4.005591726161216 0
5.652768927206383 4.337224349482121 0
9.025580093613572 2.955845696730917 0
6.003258331127995 2.981656498030958 0
5.643249106512504 2.163616281048116 0
9.020207525283922 3.257454451868571 0
8.772660347820743 3.407977718900915 0
8.462096756873208 1.352543418173275 0
8.147859213498938 1.371170316017706 0
4.802211592399493 2.50522814981163 0
4.500436942508811 2.326516249285966 0
8.98379323325644 5.691740823355422 0
3.940478089556414 3.679988366394849 0
5.008752046648736 1.134019567522446 0
4.704648014515119 1.311915886686899 0
9.057243219294548 0.3553881098613699 0
9.668572086524428 1.818491387282294 0
9.027844460127923 3.554914616522018 0
6.007470010802688 3.27497340304338 0
5.621764102398554 1.14679342774321 0
4.190869941944159 2.504458091756761 0
4.191438445415903 2.145700932103245 0
4.791041593857598 5.170765494343855 0
5.078987145120562 4.988186605138308 0
8.840543984592731 1.358764647812936 0
1.672925979446599 5.17795027303911 0
1.348945233640517 4.989236666405181 0
8.6453314781117 1.030805038419264 0
5.944069624039205 4.172042538154352 0
5.949658590929422 4.512241815256543 0
6.418636608956481 5.687005201613746 0
9.65301810581315 2.568549327673749 0
8.751199954434492 3.711499281529735 0
9.035323719123234 3.869880907930594 0
9.312630009151981 3.054561380469 0
5.659951862001048 3.104582237807035 0
6.255759570665829 3.416391460737929 0
5.69095890244044 2.781877795767406 0
1.352143868701526 4.611665245692785 0
4.704624181840634 0.9612109620860501 0
4.396860148828146 1.136614431165423 0
4.984198823702378 0.7982564686920857 0
5.017458359448887 1.829981405451374 0
2.573946197580817 5.314607958931479 0
4.357439430851032 5.340913136731399 0
9.006217758732358 2.665996843364829 0
5.653867991450015 4.677401348277137 0
5.952088922517752 4.862039702154408 0
3.250000000000001 5.309294787065871 0
4.383179069698343 1.517729736662703 0
4.037981659176971 1.328232396270033 0
0.2838405706124146 0.5031642376201689 0
9.710641003633292 5.493532990906653 0
1.702046872569323 0.5827870242830345 0
1.029513595956287 4.811482557017694 0
1.029812909100756 4.46804681437247 0
5.078606406460176 5.357893473726082 0
4.410842593676991 0.8039738892850607 0
0.318533154109697 5.419248076004462 0
1.941478949201658 5.398919244276097 0
5.635136143963886 5.063925659874814 0
6.608370287772471 3.221662579473347 0
5.73231677721375 3.427784685577533 0
5.978072393640275 5.232667094332288 0
3.371666370544991 0.5868619287621187 0
8.980952655121056 1.657474066935371 0
9.018704257209864 1.044775739371025 0
3.694444444444042 5.663212342972487 0
6.219816842464398 4.336041372076417 0
5.079430903311432 4.657407891430481 0
8.358215715881496 3.259322914729482 0
6.267946905504187 5.032034883464746 0
5.972939933053124 3.867226287186748 0
8.751927349961854 4.024174993920814 0
9.027135894549582 4.202662160118879 0
3.876289734212707 2.326543476825308 0
3.850343585773532 1.908194206876892 0
3.892670153162942 2.691295183996246 0
4.507467432166095 1.958485327259821 0
9.313579129220102 4.034962538514928 0
9.334493642808667 4.364967432323622 0
9.027260508204987 4.539594241499334 0
4.654200434022477 5.535034443376606 0
2.915079377799526 5.626965243102367 0
8.421656118168505 3.82372538696571 0
1.019646814213844 5.179838186755223 0
0.6872370362697725 4.985832216818119 0
9.614096494071642 4.193041501578417 0
9.351602030096227 4.700094342858163 0
9.02945698432405 4.883264663284892 0
9.343721602961343 5.091185491962948 0
8.738888726541227 4.707673880946405 0
9.3488150825597 3.683240542610997 0
9.618817065926638 3.479867207591262 0
5.44601179577031 3.287043745153044 0
1.626400348821505 5.561530788304746 0
8.850665702509467 0.7069291385382885 0
9.294110713393261 0.7454720583586938 0
9.444082464692382 0.3673471385204327 0
8.467791826402864 0.6802064288765926 0
6.719809154575126 1.667343514738147 0
6.880690634844596 1.333788977485798 0
7.257625911281767 1.300195768509428 0
7.052505028428397 0.9981763737591203 0
6.731317319821404 0.9938669128476618 0
7.417800602661766 0.9632331059028139 0
7.214135783241204 0.6285178752037506 0
7.620236994724622 1.268788148439878 0
7.809548943559545 0.8951778845753651 0
6.724413543366493 3.520742686821951 0
6.384296292619573 3.750383605032284 0
8.751419858476057 5.055551617932482 0
5.350287044250685 0.2968039929691684 0
5.514990940724902 0.6011059600958923 0
5.856818791805292 0.6070670137416805 0
6.234395194331254 2.509069653523677 0
5.947989825214501 2.347517123533785 0
4.290392916907686 3.679910874488534 0
4.103693045227982 3.374964155217173 0
3.739735373743125 3.388211917337598 0
9.665893884757047 2.203222491392456 0
9.338470346854686 2.429113743582281 0
9.348326244801445 2.076942316801353 0
9.630141228659468 3.13181688446068 0
6.701169774890396 4.314092154584118 0
0.2973681304471558 2.18533028908375 0
0.5944539235771693 2.003775984512195 0
0.5974272280471526 2.358474928333474 0
0.9025801196651814 2.179203321696567 0
0.9009938186397868 2.537993692185313 0
0.8988490200468006 1.822177421506408 0
1.210584617320571 1.997101338513701 0
1.200094936421533 1.652278119879893 0
0.893635287691573 1.470398450348626 0
1.177610672393839 1.294541573550934 0
0.8853773873800155 1.103943036245066 0
1.167849527286714 0.9311336009316704 0
1.561603064890987 1.862122308822452 0
0.8574083975402993 0.6935540347607597 0
0.5679365756910576 0.9308602703633118 0
9.604681087579047 1.386588281523668 0
4.301306934642359 0.2949151935375731 0
5.331279037013736 0.9169094125747146 0
3.319928153735124 2.641193879224254 0
3.347727246145818 0.99429944606677 0
3.721484729525057 0.8128521547818895 0
3.705979443648407 1.177046755904344 0
3.709135240947782 1.543144087433034 0
3.41128862973966 1.832107912314951 0
8.302600695112055 4.69041666650809 0
0.5903807905160401 1.65685092354252 0
7.478509713991279 1.626740072134671 0
6.008378218752152 5.624172487154303 0
8.579524550851227 5.63677177697148 0
3.35070342680838 3.393584027888622 0
8.676391037522212 0.3459416604407464 0
8.095882838085929 0.6417012127886207 0
8.219725462783705 0.9948779447169577 0
4.079323956464117 5.665527157786586 0
1.714013637810095 0.9476486548912676 0
1.663719335635558 2.878233460273279 0
1.334246178776678 3.078075348548658 0
1.333201699864053 3.462620152147095 0
1.005232488994918 3.271651796304293 0
1.010655926832263 3.683282762990918 0
0.6732298769715902 3.53461052488421 0
1.334404123545381 2.693307504424881 0
5.034159430885764 0.2895938865831775 0
0.3455201344861594 4.202450527066896 0
0.6771268365659138 3.942098877187191 0
6.623094443083251 5.069753983350633 0
3.966501543049173 5.308149119242632 0
1.667412931165022 3.654661055592311 0
6.447338731102901 0.3318412125725678 0
6.597822530184488 0.6640784505093149 0
6.214857059761057 0.6318774240127012 0
4.80491667537069 2.163228864995906 0
5.103521907657624 2.349733194600333 0
5.093600196620285 2.684398056339276 0
5.389182160956416 2.577743173815935 0
5.377774161213826 2.866147478527256 0
5.916455602311723 1.31187609066461 0
6.19128060879483 1.204929207816925 0
5.978272622409467 0.9516697352312725 0
1.346986207909552 3.856341077544466 0
5.329003415267188 1.989333865757377 0
8.759419578545565 4.35086284015148 0
0.6087460011981096 0.3373720429210595 0
3.607142857142859 5.309294787065871 0
6.056465702804638 0.3126279249884489 0
4.789434774551832 4.496672593944378 0
4.47336071679827 3.369129518525441 0
0.2927481184228416 1.493051472104607 0
9.40710516467597 5.680552558704917 0
4.708891437896387 1.6625346596526 0
4.207353656889015 2.843410674205209 0
9.319621171560692 2.754827837036919 0
3.323196784226958 5.673397511094637 0
4.183424643286688 1.824238448472798 0
9.191031684179727 1.364564653327138 0
4.699859219658194 0.6584052957178496 0
9.693869124833085 5.187493897765139 0
5.270160366445581 5.6748519359667 0
6.251135397975889 4.68308563823756 0
2.904947972218926 5.250173597819944 0
7.89173446312997 1.588300660447106 0
1.252650871387045 2.340450319787224 0
1.007542098487764 2.895809244950393 0
2.504084884739743 5.657592542799389 0
9.696152689611953 4.510678770934548 0
8.516510028211389 3.504989442844415 0
4.069346672281431 0.9744409118314764 0
7.945525277685392 0.3109788897981941 0
1.678819315778896 4.423076923076044 0
1.409584557469884 0.3673941305103198 0
1.343837274858797 5.361110906587903 0
3.571923867311855 3.680681345905917 0
0.596377229729193 2.720386077028224 0
9.010407442771797 5.171803679251903 0
1.510480723458278 2.16747939522801 0
8.283049042299195 5.422765398018932 0
5.077017134618448 4.32960419244853 0
1.353731892076497 4.242672512638361 0
0.5887287248728188 1.318391861274009 0
6.676105435704645 5.438481885135706 0
0.5853939527634745 5.676805007343883 0
6.52053321246696 1.339304579797363 0
3.573733421850056 0.2815070364768866 0
2.159333149905218 5.678071354183924 0
5.448488917563031 5.3793284843618 0
5.364562361007017 4.496266293349604 0
3.914528483938938 3.066801343696476 0
0.7047259503071133 4.332846722513864 0
9.326409228618271 3.360309180587087 0
0.3402815376074211 5.045379048629755 0
7.20111332928971 0.2662232198192417 0
5.969810898274942 2.662764745992822 0
0.6501130005360296 3.129381357688207 0
0.2743331792711506 0.8227845791391341 0
1.020506620465349 4.087548127874545 0
5.393258849591551 3.54391722210209 0
8.752888790514247 2.499999999999999 0
9.037728238963064 2.321877079596053 0
5.357826974762895 4.821172215985751 0
0.3286241140154461 3.365749269148501 0
4.09702348713178 0.622439318814767 0
6.22494930977764 4.021299540413592 0
5.686205115059782 3.705175726760415 0
1.337625407249176 5.706230566792065 0
0.6577932808847741 5.319268945769853 0
5.669262468649865 2.465781261008605 0
6.328705667606831 5.347352589175236 0
9.685487961471333 0.6125170760642951 0
4.945037885830509 5.713555970613879 0
7.56722173611251 0.6755949412628492 0
6.009891619254137 3.562009458632567 0
9.466687657398458 5.380933247161171 0
0.3010361068329274 2.569670299568715 0
9.305086202179952 1.715509634942962 0
5.20673333726118 0.5747706031284878 0
9.039126033395263 1.97567371781599 0
8.794367128063222 5.375818627562552 0
1.192213800279628 0.6015947629005232 0
5.660625098870391 0.8447091098773539 0
0.5304714566726791 0.647951941780307 0
9.346488485918938 1.07860857697267 0
3.608503091434704 2.845744232333097 0
4.385068434043988 5.710229862693197 0
6.384479538629554 0.9273929169927395 0
4.578568390924644 3.664831818492002 0
3.611496575638707 2.481208548647363 0
0.2585631991523863 5.73921061666978 0
4.009244763174003 1.608033945421411 0
6.71616803667536 5.719801832272193 0
5.341396179803361 5.109563123393334 0
6.89548464589674 0.7309916693006572 0
3.631362186387069 2.14831044316483 0
6.426287489143468 1.662127396654916 0
2.255759149098851 5.319686954472657 0
8.272175446988109 5.728378430478292 0
6.477582088380136 4.127100362959252 0
3.259525458824784 3.734853074758575 0
1.726130488121098 0.2744785418852249 0
9.725251262553904 0.2817956913554968 0
0.760867656729673 4.659306817088225 0
8.162296018484485 3.239364582945896 0
6.816556766227794 3.223481053258604 0
8.243112980124311 3.492067054580916 0
4.246610034544847 3.127213265075064 0
6.471506043684098 4.500478337437211 0
3.266946701094866 0.2678778136092957 0
1.44625520495871 0.7651455304816965 0
5.728095767025982 5.393411852755441 0
6.488148636476331 3.418578739115206 0
5.372776566142024 2.264017295735027 0
4.44629852400638 0.5354266163391472 0
1.448373655608909 1.133397543771434 0
0.258517314361928 0.2347739227747462 0
7.922730491783041 1.198362695378178 0
9.747616924614755 5.770473642871046 0
8.587901250101591 3.261773111972416 0
8.238550043315177 4.032027369175881 0
1.472999796571251 1.481998637757351 0
1.742843963172689 1.627516427163544 0
1.876793125963371 5.723850645164205 0
1.768909986455498 2.130076066195004 0
9.581810715198417 2.854900030400744 0
3.739892340173179 0.5208761349249048 0
6.461542069650369 4.83596059697415 0
7.819008339434088 0.5675094106984606 0
8.51396196170519 4.875521604881999 0
5.322131181861378 3.107005290248248 0
8.789197594533336 1.905087909348132 0
4.922084447280753 0.5290873700692877 0
8.510326600139368 4.508270745601761 0
5.068721673777523 2.084566369542942 0
9.804943422770094 4.070519591485224 0
3.585919936053074 3.140194549367386 0
9.172784544272581 5.424743698609205 0
8.49130463036154 4.178562715608709 0
8.528483502812902 5.239069029243106 0
4.769499640550462 1.906540281372509 0
$EndNodes
$Elements
25 1058 1 1058
1 1 1 5
1 1 25 
2 25 26 
3 26 27 
4 27 28 
5 28 5 
1 2 1 13
6 5 29 
7 29 30 
8 30 31 
9 31 32 
10 32 33 
11 33 34 
12 34 35 
13 35 36 
14 36 37 
15 37 38 
16 38 39 
17 39 40 
18 40 6 
1 5 1 4
19 7 41 
20 41 42 
21 42 43 
22 43 8 
1 6 1 3
23 8 44 
24 44 45 
25 45 9 
1 7 1 12
26 9 46 
27 46 47 
28 47 48 
29 48 49 
30 49 50 
31 50 51 
32 51 52 
33 52 53 
34 53 54 
35 54 55 
36 55 56 
37 56 10 
1 8 1 10
38 10 57 
39 57 58 
40 58 59 
41 59 60 
42 60 61 
43 61 62 
44 62 63 
45 63 64 
46 64 65 
47 65 14 
1 9 1 3
48 13 66 
49 66 67 
50 67 14 
1 10 1 3
51 13 68 
52 68 69 
53 69 15 
1 11 1 5
54 15 70 
55 70 71 
56 71 72 
57 72 73 
58 73 11 
1 13 1 8
59 11 74 
60 74 75 
61 75 76 
62 76 77 
63 77 78 
64 78 79 
65 79 80 
66 80 16 
1 14 1 2
67 16 81 
68 81 17 
1 15 1 3
69 17 82 
70 82 83 
71 83 18 
1 18 1 7
72 6 84 
73 84 85 
74 85 86 
75 86 87 
76 87 88 
77 88 89 
78 89 19 
1 19 1 3
79 19 90 
80 90 91 
81 91 20 
1 20 1 4
82 20 92 
83 92 93 
84 93 94 
85 94 21 
1 21 1 10
86 21 95 
87 95 96 
88 96 97 
89 97 98 
90 98 99 
91 99 100 
92 100 101 
93 101 102 
94 102 103 
95 103 7 
1 23 1 3
96 22 104 
97 104 105 
98 105 23 
1 24 1 2
99 23 106 
100 106 24 
1 25 1 8
101 24 107 
102 107 108 
103 108 109 
104 109 110 
105 110 111 
106 111 112 
107 112 113 
108 113 12 
1 26 1 3
109 1 114 
110 114 115 
111 115 2 
1 27 1 3
112 2 116 
113 116 117 
114 117 3 
1 28 1 10
115 3 118 
116 118 119 
117 119 120 
118 120 121 
119 121 122 
120 122 123 
121 123 124 
122 124 125 
123 125 126 
124 126 4 
1 29 1 18
125 4 127 
126 127 128 
127 128 129 
128 129 130 
129 130 131 
130 131 132 
131 132 133 
132 133 134 
133 134 135 
134 135 136 
135 136 137 
136 137 138 
137 138 139 
138 139 140 
139 140 141 
140 141 142 
141 142 143 
142 143 12 
1 30 1 5
143 18 144 
144 144 145 
145 145 146 
146 146 147 
147 147 22 
2 1 2 911
148 156 288 296 
149 285 356 357 
150 156 296 525 
151 433 379 460 
152 373 374 378 
153 379 280 460 
154 252 292 413 
155 23 168 270 
156 288 156 301 
157 374 203 378 
158 281 319 464 
159 231 19 253 
160 244 389 520 
161 285 357 485 
162 332 243 442 
163 292 252 417 
164 231 253 291 
165 289 297 418 
166 246 388 389 
167 270 318 495 
168 384 392 477 
169 302 332 442 
170 244 246 389 
171 270 168 502 
172 265 231 291 
173 303 244 520 
174 388 246 459 
175 297 157 418 
176 437 417 487 
177 294 205 424 
178 384 323 392 
179 417 252 487 
180 306 181 461 
181 157 297 299 
182 258 287 403 
183 287 258 407 
184 392 391 477 
185 319 281 455 
186 257 292 406 
187 157 299 410 
188 181 306 474 
189 265 291 462 
190 315 175 484 
191 175 315 444 
192 354 355 420 
193 216 236 366 
194 441 264 448 
195 259 355 356 
196 65 64 302 
197 302 64 332 
198 378 441 448 
199 295 200 443 
200 443 267 458 
201 295 443 458 
202 200 295 493 
203 292 257 413 
204 259 356 481 
205 79 293 496 
206 319 245 464 
207 347 174 396 
208 316 414 507 
209 315 171 444 
210 271 456 464 
211 293 79 510 
212 355 259 420 
213 171 315 463 
214 16 80 494 
215 107 24 495 
216 374 446 453 
217 446 202 453 
218 347 396 473 
219 375 170 415 
220 168 245 502 
221 211 243 405 
222 391 435 477 
223 414 217 507 
224 456 281 464 
225 56 55 307 
226 346 33 512 
227 271 303 449 
228 205 294 458 
229 330 331 451 
230 415 170 428 
231 296 67 525 
232 33 346 514 
233 296 289 418 
234 67 296 418 
235 271 449 456 
236 332 63 515 
237 318 107 495 
238 451 331 469 
239 354 420 454 
240 224 305 306 
241 435 313 477 
242 291 138 462 
243 330 254 405 
244 397 257 406 
245 226 242 301 
246 375 338 416 
247 254 211 405 
248 14 65 156 
249 64 63 332 
250 217 216 366 
251 365 317 366 
252 242 288 301 
253 276 397 406 
254 119 202 466 
255 276 367 380 
256 424 205 457 
257 167 308 364 
258 138 291 476 
259 338 375 415 
260 351 322 468 
261 23 105 159 
262 279 494 496 
263 416 338 426 
264 146 145 360 
265 303 165 449 
266 367 253 380 
267 54 53 364 
268 236 308 366 
269 408 349 474 
270 305 224 364 
271 276 380 397 
272 308 167 365 
273 253 367 476 
274 55 224 307 
275 331 467 469 
276 388 459 503 
277 144 195 414 
278 304 130 513 
279 307 306 461 
280 254 330 451 
281 459 213 503 
282 316 360 414 
283 505 343 511 
284 467 274 469 
285 165 303 520 
286 195 217 414 
287 416 426 446 
288 373 378 448 
289 92 20 326 
290 323 384 398 
291 224 306 307 
292 161 213 325 
293 344 348 432 
294 324 148 325 
295 156 65 302 
296 202 426 466 
297 82 17 193 
298 361 272 501 
299 130 304 457 
300 322 351 472 
301 53 167 364 
302 182 505 511 
303 348 190 432 
304 193 17 194 
305 203 374 453 
306 272 361 460 
307 104 148 324 
308 99 150 357 
309 164 166 400 
310 22 147 309 
311 144 18 195 
312 405 243 515 
313 349 408 467 
314 61 225 329 
315 153 108 318 
316 419 279 496 
317 350 201 454 
318 224 54 364 
319 445 325 459 
320 100 99 357 
321 46 154 398 
322 154 323 398 
323 46 9 154 
324 329 225 331 
325 360 145 414 
326 240 329 330 
327 197 146 360 
328 153 318 319 
329 109 153 333 
330 308 305 364 
331 292 134 406 
332 166 207 400 
333 291 253 476 
334 349 181 474 
335 108 107 318 
336 357 150 485 
337 154 9 321 
338 325 213 459 
339 23 159 168 
340 354 454 516 
341 240 62 329 
342 63 62 240 
343 14 156 525 
344 309 197 310 
345 301 156 302 
346 221 92 326 
347 9 45 321 
348 353 172 355 
349 148 161 325 
350 243 332 515 
351 388 387 389 
352 250 351 468 
353 67 14 525 
354 328 363 425 
355 72 220 362 
356 97 184 352 
357 3 118 334 
358 109 108 153 
359 195 18 206 
360 355 172 356 
361 176 77 358 
362 321 45 376 
363 101 172 353 
364 43 201 350 
365 59 181 349 
366 198 228 351 
367 387 188 389 
368 427 470 527 
369 324 325 445 
370 221 326 327 
371 172 100 357 
372 152 162 163 
373 155 141 361 
374 308 365 366 
375 339 342 359 
376 369 170 375 
377 383 382 384 
378 239 433 460 
379 169 110 333 
380 273 353 354 
381 6 40 173 
382 384 382 398 
383 27 26 174 
384 310 312 313 
385 276 136 367 
386 366 317 507 
387 184 96 363 
388 61 60 225 
389 354 353 355 
390 147 197 309 
391 350 454 504 
392 225 60 349 
393 330 329 331 
394 258 259 481 
395 407 258 481 
396 189 188 387 
397 182 31 368 
398 318 270 502 
399 248 222 250 
400 45 44 376 
401 72 71 220 
402 310 311 312 
403 110 109 333 
404 97 96 184 
405 145 144 414 
406 73 72 362 
407 410 299 465 
408 222 198 351 
409 62 61 329 
410 365 167 421 
411 35 170 369 
412 78 77 176 
413 273 102 353 
414 465 299 527 
415 150 98 352 
416 76 185 358 
417 245 319 502 
418 101 100 172 
419 135 136 276 
420 133 134 292 
421 44 149 376 
422 111 169 379 
423 20 151 152 
424 246 445 459 
425 123 200 377 
426 136 137 367 
427 140 141 155 
428 344 347 348 
429 142 239 361 
430 262 423 500 
431 250 222 351 
432 35 34 170 
433 32 31 182 
434 385 218 386 
435 103 102 273 
436 209 237 281 
437 218 189 387 
438 370 369 375 
439 93 92 221 
440 203 377 378 
441 152 163 164 
442 299 427 527 
443 96 95 363 
444 111 110 169 
445 98 97 352 
446 76 75 185 
447 53 52 167 
448 310 197 311 
449 77 76 358 
450 19 89 253 
451 102 101 353 
452 99 98 150 
453 59 58 181 
454 133 292 417 
455 142 143 239 
456 236 305 308 
457 141 142 361 
458 8 43 350 
459 198 191 228 
460 312 311 314 
461 60 59 349 
462 48 47 382 
463 386 387 388 
464 175 382 383 
465 123 124 200 
466 125 126 267 
467 327 326 400 
468 30 262 368 
469 203 122 377 
470 31 30 368 
471 147 146 197 
472 26 25 396 
473 314 316 317 
474 213 180 394 
475 152 151 162 
476 314 311 316 
477 226 301 442 
478 356 285 481 
479 112 111 379 
480 36 35 369 
481 128 129 205 
482 122 123 377 
483 71 70 402 
484 119 120 202 
485 121 122 203 
486 328 327 440 
487 470 220 527 
488 163 162 186 
489 154 321 322 
490 105 104 324 
491 312 314 315 
492 288 289 296 
493 268 437 487 
494 242 283 288 
495 309 310 435 
496 339 341 342 
497 164 163 165 
498 223 222 248 
499 335 339 359 
500 423 471 500 
501 63 240 515 
502 6 173 234 
503 199 198 222 
504 391 196 435 
505 240 330 405 
506 175 48 382 
507 335 337 339 
508 191 179 390 
509 211 194 214 
510 30 29 262 
511 177 36 369 
512 6 234 268 
513 293 419 496 
514 183 232 278 
515 386 218 387 
516 47 46 398 
517 177 369 370 
518 356 172 357 
519 287 219 385 
520 370 375 416 
521 342 344 432 
522 167 52 421 
523 230 219 287 
524 192 191 198 
525 342 343 344 
526 161 180 213 
527 177 370 371 
528 44 8 149 
529 51 50 171 
530 37 36 177 
531 38 37 381 
532 39 38 178 
533 158 335 359 
534 228 191 390 
535 43 42 201 
536 219 218 385 
537 371 370 372 
538 49 48 175 
539 174 26 396 
540 179 196 390 
541 381 371 393 
542 153 319 489 
543 55 54 224 
544 178 38 381 
545 37 177 381 
546 139 140 411 
547 371 372 373 
548 177 371 381 
549 236 275 305 
550 138 139 462 
551 20 91 151 
552 235 263 294 
553 134 135 406 
554 178 381 393 
555 288 283 289 
556 371 373 393 
557 104 22 148 
558 192 199 251 
559 180 192 394 
560 228 390 392 
561 342 341 343 
562 13 66 157 
563 148 22 160 
564 326 20 478 
565 192 251 394 
566 373 372 374 
567 180 179 191 
568 266 248 409 
569 344 345 347 
570 192 198 199 
571 216 233 236 
572 161 160 179 
573 247 173 422 
574 154 322 323 
575 249 248 266 
576 179 160 196 
577 166 165 188 
578 199 222 223 
579 117 3 158 
580 66 67 418 
581 223 248 249 
582 311 197 360 
583 91 90 399 
584 220 71 402 
585 28 27 423 
586 263 247 264 
587 294 263 295 
588 88 87 397 
589 186 187 209 
590 233 206 274 
591 434 205 458 
592 339 340 341 
593 382 47 398 
594 89 88 380 
595 335 336 337 
596 344 343 345 
597 305 275 306 
598 85 84 252 
599 87 86 257 
600 378 377 441 
601 316 311 360 
602 51 171 421 
603 352 184 475 
604 116 117 401 
605 173 40 422 
606 223 249 258 
607 390 391 392 
608 216 206 233 
609 180 191 192 
610 235 247 263 
611 289 290 297 
612 148 160 161 
613 195 216 217 
614 235 173 247 
615 159 105 324 
616 161 179 180 
617 256 272 280 
618 208 189 218 
619 376 149 522 
620 390 196 391 
621 39 178 422 
622 236 233 275 
623 150 352 479 
624 229 284 286 
625 339 337 340 
626 90 19 183 
627 178 393 431 
628 130 131 513 
629 86 85 413 
630 164 165 166 
631 175 383 484 
632 165 163 449 
633 258 249 259 
634 2 116 190 
635 135 276 406 
636 221 327 328 
637 238 210 255 
638 301 302 442 
639 237 238 277 
640 251 199 403 
641 271 244 303 
642 209 210 237 
643 200 124 443 
644 256 255 269 
645 125 267 443 
646 151 91 399 
647 234 235 424 
648 18 83 204 
649 94 93 425 
650 380 88 397 
651 27 174 423 
652 56 307 492 
653 186 162 187 
654 241 215 419 
655 248 250 409 
656 289 283 290 
657 284 230 285 
658 131 132 437 
659 341 340 346 
660 68 13 410 
661 297 298 299 
662 183 278 399 
663 234 173 235 
664 195 206 216 
665 229 219 230 
666 140 155 411 
667 208 218 219 
668 298 290 300 
669 268 234 304 
670 238 255 256 
671 209 281 456 
672 75 74 429 
673 209 187 210 
674 223 258 403 
675 256 269 272 
676 93 221 425 
677 221 328 425 
678 319 455 489 
679 127 128 434 
680 237 210 238 
681 113 112 433 
682 208 219 229 
683 304 234 424 
684 393 373 448 
685 337 336 338 
686 214 194 215 
687 285 230 407 
688 52 51 421 
689 117 158 401 
690 290 283 395 
691 87 257 397 
692 229 230 284 
693 149 409 522 
694 340 337 415 
695 337 338 415 
696 229 286 404 
697 190 401 432 
698 40 39 422 
699 166 188 189 
700 283 282 395 
701 230 287 407 
702 199 223 403 
703 281 237 455 
704 90 183 399 
705 351 228 472 
706 132 133 417 
707 359 342 432 
708 298 300 320 
709 242 282 283 
710 158 334 335 
711 300 290 395 
712 257 86 413 
713 85 252 413 
714 232 231 265 
715 253 89 380 
716 158 359 401 
717 13 157 410 
718 372 370 416 
719 227 244 271 
720 297 290 298 
721 185 75 429 
722 233 274 408 
723 166 189 207 
724 157 66 418 
725 319 318 502 
726 207 208 404 
727 114 115 260 
728 235 294 424 
729 190 116 401 
730 183 231 232 
731 151 399 430 
732 256 280 412 
733 207 189 208 
734 244 212 246 
735 190 348 447 
736 201 42 436 
737 227 212 244 
738 69 68 261 
739 401 359 432 
740 121 203 453 
741 202 120 453 
742 155 361 501 
743 225 349 467 
744 183 19 231 
745 149 8 350 
746 335 334 336 
747 275 233 408 
748 171 50 444 
749 277 238 412 
750 338 336 426 
751 49 175 444 
752 208 229 404 
753 193 254 450 
754 249 266 420 
755 238 256 412 
756 162 151 430 
757 226 241 242 
758 58 57 461 
759 158 3 334 
760 259 249 420 
761 321 376 468 
762 112 379 433 
763 346 340 428 
764 383 313 484 
765 150 479 485 
766 269 255 452 
767 128 205 434 
768 168 227 245 
769 422 178 431 
770 118 119 466 
771 205 129 457 
772 264 247 431 
773 187 162 430 
774 310 313 435 
775 242 241 282 
776 255 210 439 
777 352 475 479 
778 265 411 438 
779 399 278 430 
780 168 212 227 
781 193 194 211 
782 429 362 529 
783 194 17 509 
784 315 314 463 
785 42 41 436 
786 331 225 467 
787 137 138 476 
788 293 241 419 
789 82 193 450 
790 340 415 428 
791 282 241 293 
792 20 152 478 
793 411 265 462 
794 374 372 446 
795 377 200 441 
796 260 396 506 
797 126 4 480 
798 313 312 484 
799 4 127 480 
800 299 298 427 
801 494 80 496 
802 247 422 431 
803 168 159 212 
804 261 68 410 
805 143 12 482 
806 261 402 508 
807 170 34 514 
808 12 113 482 
809 22 309 486 
810 204 83 450 
811 79 78 510 
812 362 470 529 
813 187 430 439 
814 174 347 471 
815 440 327 497 
816 298 320 427 
817 2 190 447 
818 317 365 518 
819 11 73 488 
820 124 125 443 
821 279 419 509 
822 226 215 241 
823 431 393 448 
824 361 239 460 
825 362 220 470 
826 210 187 439 
827 404 286 440 
828 57 10 492 
829 95 21 490 
830 214 215 226 
831 50 49 444 
832 74 11 488 
833 346 428 514 
834 430 278 439 
835 25 1 506 
836 411 155 438 
837 70 15 508 
838 211 214 243 
839 363 328 526 
840 396 25 506 
841 188 165 520 
842 273 354 516 
843 428 170 514 
844 10 56 492 
845 21 94 490 
846 402 70 508 
847 132 417 437 
848 159 324 445 
849 5 28 491 
850 260 115 447 
851 214 226 442 
852 227 271 464 
853 204 451 469 
854 269 438 501 
855 115 2 447 
856 193 211 254 
857 29 5 491 
858 280 379 517 
859 246 212 445 
860 163 186 449 
861 6 268 487 
862 84 6 487 
863 285 407 481 
864 7 103 499 
865 392 323 472 
866 263 264 493 
867 33 32 512 
868 164 400 478 
869 83 82 450 
870 260 447 473 
871 120 121 453 
872 255 439 452 
873 160 22 486 
874 278 232 452 
875 313 383 477 
876 306 275 474 
877 41 7 499 
878 217 366 507 
879 129 130 457 
880 449 186 456 
881 523 395 528 
882 426 202 446 
883 106 23 270 
884 343 341 511 
885 243 214 442 
886 372 416 446 
887 237 277 455 
888 336 334 466 
889 383 384 477 
890 139 411 462 
891 212 159 445 
892 186 209 456 
893 264 431 448 
894 294 295 458 
895 232 265 483 
896 402 261 465 
897 454 266 504 
898 420 266 454 
899 439 278 452 
900 461 57 492 
901 181 58 461 
902 441 200 493 
903 314 317 463 
904 261 410 465 
905 204 450 451 
906 264 441 493 
907 436 273 516 
908 304 424 457 
909 17 81 279 
910 334 118 466 
911 348 347 473 
912 280 272 460 
913 309 435 486 
914 1 114 506 
915 182 368 505 
916 267 434 458 
917 15 69 508 
918 489 277 498 
919 447 348 473 
920 272 269 501 
921 265 438 483 
922 347 345 471 
923 333 153 489 
924 323 322 472 
925 419 215 509 
926 400 207 497 
927 322 321 468 
928 268 304 513 
929 400 326 478 
930 438 269 483 
931 245 227 464 
932 421 171 518 
933 396 260 473 
934 450 254 451 
935 426 336 466 
936 519 300 523 
937 404 440 497 
938 327 400 497 
939 437 268 513 
940 408 274 467 
941 28 423 491 
942 333 489 498 
943 395 282 528 
944 435 196 486 
945 367 137 476 
946 176 358 523 
947 176 523 528 
948 363 95 490 
949 184 363 526 
950 73 362 488 
951 468 376 522 
952 103 273 499 
953 228 392 472 
954 409 149 504 
955 206 18 521 
956 274 206 521 
957 358 519 523 
958 475 286 479 
959 269 452 483 
960 169 333 498 
961 307 461 492 
962 389 188 520 
963 423 174 471 
964 423 262 491 
965 17 279 509 
966 239 143 482 
967 403 287 530 
968 379 169 517 
969 454 201 516 
970 267 126 480 
971 78 176 510 
972 80 79 496 
973 152 164 478 
974 358 185 519 
975 328 440 526 
976 312 315 484 
977 427 320 470 
978 275 408 474 
979 386 388 503 
980 149 350 504 
981 131 437 513 
982 32 182 512 
983 127 434 480 
984 368 262 500 
985 213 394 503 
986 266 409 504 
987 113 433 482 
988 18 204 521 
989 286 284 479 
990 262 29 491 
991 385 386 524 
992 317 316 507 
993 171 463 518 
994 196 160 486 
995 386 503 524 
996 429 74 488 
997 295 263 493 
998 94 425 490 
999 385 524 530 
1000 34 33 514 
1001 252 84 487 
1002 284 285 485 
1003 425 363 490 
1004 524 251 530 
1005 503 394 524 
1006 440 286 475 
1007 479 284 485 
1008 81 16 494 
1009 24 106 495 
1010 207 404 497 
1011 300 395 523 
1012 320 519 529 
1013 220 402 527 
1014 277 412 498 
1015 287 385 530 
1016 345 343 505 
1017 362 429 488 
1018 463 317 518 
1019 320 300 519 
1020 341 346 511 
1021 273 436 499 
1022 519 185 529 
1023 394 251 524 
1024 201 436 516 
1025 455 277 489 
1026 251 403 530 
1027 433 239 482 
1028 409 250 522 
1029 434 267 480 
1030 365 421 518 
1031 498 412 517 
1032 412 280 517 
1033 114 260 506 
1034 106 270 495 
1035 440 475 526 
1036 215 194 509 
1037 69 261 508 
1038 436 41 499 
1039 185 429 529 
1040 282 293 528 
1041 240 405 515 
1042 169 498 517 
1043 438 155 501 
1044 279 81 494 
1045 452 232 483 
1046 469 274 521 
1047 471 345 500 
1048 500 345 505 
1049 250 468 522 
1050 368 500 505 
1051 402 465 527 
1052 204 469 521 
1053 470 320 529 
1054 182 511 512 
1055 475 184 526 
1056 293 510 528 
1057 511 346 512 
1058 510 176 528 
$EndElements
